
<svg width="433px" height="533px" viewBox="0 0 433 533" version="1.1" xmlns="http://www.w3.org/2000/svg" xmlns:xlink="http://www.w3.org/1999/xlink">
    <defs>
        <linearGradient x1="-4.58696709%" y1="-28.0018513%" x2="59.4135435%" y2="96.3107012%" id="linearGradient-1">
            <stop stop-color="#4AC1FF" stop-opacity="0.971410779" offset="0%"></stop>
            <stop stop-color="#FFFFFF" stop-opacity="0.336899909" offset="100%"></stop>
        </linearGradient>
    </defs>
    <g id="Page-1" stroke="none" stroke-width="1" fill="none" fill-rule="evenodd" opacity="0.499093192">
        <path d="M41.1354673,8.25006811 L308.495934,42.3073425 C355.611698,48.3091068 388.941181,91.3693717 382.939416,138.485136 C380.548462,157.254893 372.03411,174.712216 358.71555,188.15232 C325.84069,221.327193 285.691965,261.075879 238.269374,307.398376 C85.267023,456.851428 9.35832549,516.885967 10.5432818,487.501992 L10.5432815,487.501992 C10.7921347,481.331053 10.3755348,475.151259 9.30069116,469.069554 L-54.419255,108.527872 C-62.6853925,61.7562203 -31.4705059,17.1392768 15.3011457,8.87313931 C23.8320511,7.36543892 32.5417975,7.15537758 41.1354673,8.25006811 Z" id="Shape" fill="url(#linearGradient-1)" transform="translate(163.945990, 251.152319) scale(-1, 1) rotate(-22.000000) translate(-163.945990, -251.152319) "></path>
    </g>
</svg>