<?xml version="1.0" encoding="utf-8"?>
<!-- Generator: Adobe Illustrator 19.1.0, SVG Export Plug-In . SVG Version: 6.00 Build 0)  -->
<svg version="1.1" id="Layer_1" xmlns="http://www.w3.org/2000/svg" xmlns:xlink="http://www.w3.org/1999/xlink" x="0px" y="0px"
	 viewBox="-154 357.7 302.2 79.3" style="enable-background:new -154 357.7 302.2 79.3;" xml:space="preserve">
<style type="text/css">
	.st0{fill:#5EA4CB;}
	.st1{fill:url(#SVGID_1_);}
</style>
<g id="Layer_1_1_">
	<g>
		<path d="M-59.7,395.8c0,4.7-0.8,8.9-2.5,12.8c-1.7,3.8-4,6.8-7,8.8c-3,2.1-6.4,3.1-10.2,3.1c-4.4,0-8-1.3-10.6-4
			c-2.6-2.7-3.9-6.3-3.9-10.8c0-4.6,0.8-8.8,2.5-12.7c1.7-3.8,4-6.8,7-9c3-2.1,6.4-3.2,10.4-3.2c4.5,0,8.1,1.3,10.6,4
			C-60.9,387.5-59.7,391.2-59.7,395.8z M-67.9,395.5c0-2.5-0.6-4.4-1.7-5.8s-2.8-2.1-4.9-2.1c-2.2,0-4.1,0.8-5.8,2.5
			c-1.7,1.7-3,3.9-4,6.7c-0.9,2.8-1.4,5.9-1.4,9.1c0,2.6,0.6,4.5,1.7,5.9s2.8,2.1,5.1,2.1c2.1,0,4-0.8,5.6-2.4
			c1.7-1.6,3-3.8,3.9-6.6C-68.4,402-67.9,398.9-67.9,395.5z"/>
		<path d="M-19.1,381.4l-1.1,4.8l-6.7,1.1c0.6,1.3,1,2.9,1,4.8c0,4.5-1.4,8-4.1,10.7c-2.8,2.6-6.5,3.9-11.1,3.9
			c-1.2,0-2.3-0.1-3.2-0.3c-2.6,0.9-3.9,2.1-3.9,3.6c0,0.9,0.4,1.5,1.1,1.8c0.7,0.3,1.8,0.6,3.2,0.8l4.4,0.6c4.1,0.5,7,1.5,8.8,3
			s2.6,3.7,2.6,6.5c0,4.5-1.8,8.1-5.2,10.5c-3.5,2.5-8.5,3.7-14.9,3.7c-4.7,0-8.3-0.9-10.9-2.6c-2.6-1.7-3.9-4.1-3.9-7.2
			c0-2.4,0.8-4.4,2.4-6.2c1.6-1.7,4.2-3.2,7.8-4.4c-1.8-1-2.6-2.5-2.6-4.4c0-1.6,0.5-3,1.6-4.2c1.1-1.2,2.8-2.3,5.1-3.4
			c-3.1-1.9-4.7-4.8-4.7-8.8c0-4.5,1.4-8.2,4.3-11c2.8-2.8,6.6-4.2,11.2-4.2c1.9,0,3.7,0.2,5.6,0.7h13.2V381.4z M-47.6,419.2
			c-2.6,0.4-4.6,1.2-6,2.5c-1.4,1.2-2.1,2.7-2.1,4.6c0,1.5,0.6,2.7,1.9,3.6c1.3,0.9,3.3,1.3,5.9,1.3c3.8,0,6.7-0.6,8.9-1.9
			c2.1-1.3,3.2-3,3.2-5.4c0-1.2-0.5-2.1-1.6-2.8c-1-0.7-2.9-1.1-5.5-1.4L-47.6,419.2z M-38.2,386.2c-1.5,0-2.8,0.4-4,1.3
			c-1.1,0.9-2,2.1-2.6,3.7c-0.6,1.5-0.9,3.2-0.9,5.1c0,1.6,0.4,2.9,1.2,3.8c0.8,0.9,2,1.3,3.5,1.3s2.8-0.5,3.9-1.4
			c1.1-0.9,2-2.1,2.6-3.7s0.9-3.3,0.9-5.2C-33.6,387.8-35.1,386.2-38.2,386.2z"/>
		<path d="M-13,419.9h-8.2l8.2-38.4h8.2L-13,419.9z"/>
		<path d="M40.9,389.4c0,6-1.2,11.4-3.7,16c-2.4,4.6-5.9,8.2-10.4,10.7s-9.8,3.8-15.9,3.8H-1.3l10.7-50.8h11.9
			c6.4,0,11.3,1.7,14.6,5.2C39.2,377.7,40.9,382.7,40.9,389.4z M11.3,414.7c4.7,0,8.8-1.1,12.3-3.2c3.5-2.1,6.3-5.1,8.2-9
			c1.9-3.9,2.8-8.3,2.8-13.3s-1.2-8.8-3.6-11.3c-2.4-2.6-5.9-3.8-10.5-3.8h-6.2l-8.6,40.6H11.3z"/>
		<path d="M63,381.3c4.4,0,7.9,1.3,10.4,3.9s3.8,6.2,3.8,10.8c0,4.4-0.8,8.5-2.5,12.3c-1.7,3.9-3.9,6.9-6.8,9
			c-2.9,2.1-6.1,3.2-9.7,3.2c-4.4,0-7.9-1.3-10.5-3.9c-2.5-2.6-3.8-6.2-3.8-10.7c0-4.4,0.8-8.5,2.5-12.4c1.7-3.9,4-6.9,6.8-8.9
			C56.3,382.3,59.5,381.3,63,381.3z M71.2,395.1c0-2.7-0.7-4.8-2.2-6.5c-1.4-1.7-3.4-2.5-5.9-2.5s-4.8,0.9-6.8,2.6s-3.6,4.1-4.7,7.1
			c-1.1,3-1.7,6.4-1.7,10.2c0,3,0.7,5.4,2.2,7c1.5,1.7,3.6,2.5,6.3,2.5c2.4,0,4.6-0.8,6.5-2.5c1.9-1.7,3.4-4.1,4.5-7.2
			C70.6,402.7,71.2,399.1,71.2,395.1z"/>
		<path d="M95.6,420.6c-2.2,0-4.2-0.6-5.9-1.7c-1.7-1.2-3-2.8-3.9-4.9h-0.3l-0.1,1.3c-0.1,0.6-0.2,1.4-0.4,2.4s-1.5,7.5-4,19.3h-5.8
			l11.7-55.2h4.8l-0.9,7.3h0.3c4.1-5.3,8.5-7.9,12.9-7.9c3.2,0,5.7,1.1,7.5,3.4c1.8,2.3,2.7,5.4,2.7,9.5c0,4.9-0.8,9.4-2.4,13.5
			s-3.8,7.3-6.6,9.6C102.3,419.4,99.1,420.6,95.6,420.6z M102,386c-2.2,0-4.5,1.1-6.8,3.3c-2.3,2.2-4.1,5-5.5,8.3
			c-1.4,3.3-2,6.8-2,10.3c0,2.5,0.6,4.5,1.9,5.9c1.3,1.4,3.1,2,5.6,2c2.3,0,4.4-0.9,6.4-2.8c2-1.9,3.6-4.5,4.8-8s1.8-7.1,1.8-11
			C108.2,388.6,106.2,386,102,386z"/>
		<path d="M132.3,420.6c-4.3,0-7.6-1.3-10-3.8s-3.7-6-3.7-10.5c0-4.4,0.9-8.5,2.6-12.5s4-7.1,6.9-9.3c2.9-2.2,6-3.3,9.4-3.3
			c3.5,0,6.2,0.8,8,2.3s2.7,3.7,2.7,6.4c0,4.2-1.9,7.4-5.8,9.8c-3.8,2.4-9.4,3.6-16.5,3.6h-1.1l-0.1,2.8c0,3,0.7,5.4,2.1,7.1
			s3.6,2.6,6.6,2.6c1.5,0,3-0.2,4.5-0.6s3.5-1.2,5.8-2.3v5.1c-2.2,1-4.1,1.7-5.8,2.1C136.2,420.3,134.4,420.6,132.3,420.6z
			 M137.2,386c-2.4,0-4.6,1.1-6.7,3.3c-2.1,2.2-3.7,5.2-4.8,9.1h0.4c5.3,0,9.3-0.7,12.2-2.1c2.8-1.4,4.2-3.4,4.2-6
			c0-1.2-0.4-2.2-1.3-3.1C140.3,386.4,139,386,137.2,386z"/>
		<path d="M-99.5,409.1c0.8-2.1,1.3-4.5,1.3-7.1c0-1-0.1-1.9-0.3-2.8C-98.1,403.4-98.6,406.6-99.5,409.1z"/>
		<path d="M-107.8,403.9c-0.1,0.5-0.2,0.9-0.3,1.3C-108,404.8-107.9,404.4-107.8,403.9z"/>
		<path class="st0" d="M-102.4,366c-2.6-1.9-6.4-2.9-11.4-2.9h-13.7c0,0,0.1,0.2,0.4,0.5c3.8,4.9,7.7,4.9,13,5.6
			c5.4,0.8,6,7.1,6,7.1c0-3.9-2-7.7-7.3-8.1c-2.7-0.2-4.5-0.8-6-1.4c1.7,0.5,4,0.8,6.7,0.8c5.1,0,7.6,4.2,7.6,8.1
			c0,2.5-0.9,4.5-2.6,5.8c0,0-0.1,0-0.1,0.1c1.4,1,2.7,2,4,3.1c0.3,0.2,0.5,0.4,0.8,0.6c1.3-0.7,2.5-1.6,3.4-2.7c2-2.2,3-5,3-8.3
			C-98.5,370.7-99.8,367.9-102.4,366z"/>
		<path d="M-114.6,411.6c-1.6,0.5-3.3,0.7-5.3,0.7h-7.3c0-0.2,0.1-0.5,0.1-0.7c0.7-4.6,1.4-10.7,1.5-15.7
			c-0.7,3.7-2.4,12.2-3.1,15.7c-0.1,0.3-0.1,0.5-0.1,0.7h-1.2c0,0,0-0.3,0.1-0.7c0.5-2.6,2.2-11.8,3.2-17.2
			c1.3-7.4-4.5-12.6-4.5-12.6l-6.3,29.9l-1.8,8.6h19.2c6.1,0,11-1.2,14.8-3.7l0,0c1.3-0.7,3.3-2.1,4.9-4.8h-14.2V411.6z"/>
		
			<linearGradient id="SVGID_1_" gradientUnits="userSpaceOnUse" x1="-126.5456" y1="419.98" x2="-116.6245" y2="385.8075" gradientTransform="matrix(1 0 0 -1 0 797.4)">
			<stop  offset="0" style="stop-color:#5EA4CB"/>
			<stop  offset="1" style="stop-color:#000000"/>
		</linearGradient>
		<path class="st1" d="M-98.5,399.3L-98.5,399.3c-0.3-3-2.6-6.3-5.8-9.5c-1.4-1.4-3-2.9-4.7-4.2c-3.9-3.2-8.3-6.2-12.1-8.5
			c-2.8-1.8-8.9-5.8-11.5-7.5l4.4-1.9l-1.3-1l-5.7,0.7l-3.1-1.3l-0.4-5.5l0.1-0.3l0.3,0.1l0.1-0.3c0,0-2.8-1.6-3.6-2.1
			c-1-0.4-0.2,0.2-0.2,0.2l1.5,1c0,0-1.8,1.6-3.3,3c-2.3-3.1-5.3-2.9-5.3-2.9s-5.9-2.8-4.8-1.1c1.1,1.7,5.1,4.3,5.2,4.3
			c0,0-0.4,0.8,0.7,1.7l4.5,2.9c0,0,3.3,6.6,3.6,7.7c-2.5-1.1-1.8-0.5-1.8-0.5l4.1,1.9l0.2-0.4l-0.5-0.1l-0.6-4.8l0.1-0.4l2,1
			l0.4,1.3c0,0,0.7,2.9,1.1,3.4c0.4,0.5,1.2,0.3,1.2,0.3l0.3-2.3c3,2,8.5,5.5,11,7.1c-3.3-3.2-7.7-6.6-11.1-8.9
			c0.2-0.1,0.4-0.2,0.4-0.2s0-0.1,0.1-0.2c3.4,2.6,9.2,6.8,11.3,8.3c2.8,2.2,5.4,4.2,7.4,6.3c5.2,5.2,7.9,10.3,6.7,16.6
			c0,0.2-0.1,0.4-0.1,0.6c-0.1,0.5-0.2,0.9-0.3,1.3c-0.5,1.8-1.4,3.3-2.9,4.4c-1,0.8-2.3,1.7-3.7,2.1l-0.1,0.3l14.3-0.1
			c0.4-0.7,0.7-1.4,1.1-2.4C-98.5,407-98.1,403.4-98.5,399.3z"/>
		<g>
			<path class="st0" d="M-12.6,371.7L-12.6,371.7c0,0.1,0,0.1,0,0.1S-12.6,371.8-12.6,371.7L-12.6,371.7z"/>
			<path class="st0" d="M-9.9,366.6L-9.9,366.6L-9.9,366.6L-9.9,366.6z"/>
			<path class="st0" d="M-9.8,366.5C-9.8,366.6-9.9,366.6-9.8,366.5c0.2,0,0.1,0.1,0.3-0.1L-9.8,366.5z"/>
			<path class="st0" d="M-9.9,366.7L-9.9,366.7c-0.3,0.2-0.5,0.2-0.8,0.5C-10.4,367-10.1,366.8-9.9,366.7z"/>
			<path class="st0" d="M-10.6,368.3c-0.1,0.2-0.2,0.2-0.4,0.4l0,0l0,0c0.2,0,0.3-0.3,0.5-0.3L-10.6,368.3z"/>
			<path class="st0" d="M-8.1,367.2c0.1,0,0.2,0,0.1,0c0.2,0,0-0.1,0.1-0.2c-0.1,0.1-0.2,0-0.3,0C-8.2,367.2-7.9,367.2-8.1,367.2z"
				/>
			<path class="st0" d="M-8.1,367.2h-0.1C-8.2,367.2-8.1,367.2-8.1,367.2z"/>
			<path class="st0" d="M-12.2,371.7c0.1,0,0.1,0,0.2,0h0.1l0,0l0,0l0,0l0,0c0,0,0,0,0.1,0s0.2,0.1,0.2,0.1c0-0.1,0-0.1-0.1-0.1
				c0.1,0,0.2,0,0.2,0s-0.1,0.1-0.1,0v0.1c0.1,0,0.2,0,0.2,0s0,0,0.1,0v-0.1l0,0l0,0c0.1,0,0.2,0,0.3-0.1l0,0c0,0,0,0,0,0.1
				c0.1,0,0.1,0,0.1-0.1H-11l0,0l0.1-0.1c0.1,0,0.2,0.1,0.2,0.1l0,0h-0.1l0.1,0.1l0,0l0,0l0,0l0,0l0,0l0,0l0,0c0,0,0.1,0.1,0.2,0.1
				l0,0h0.1c0,0,0,0,0.1-0.1l0,0l0,0v-0.1c0,0-0.1,0-0.1-0.1l0,0l0,0l0,0h-0.1c0,0,0-0.1-0.1-0.1c0-0.1,0-0.1,0.1-0.1
				c-0.1-0.2-0.5-0.2-0.7-0.2l-0.1,0.1l-0.1-0.1h-0.1c-0.2-0.2-0.5-0.1-0.6-0.1s-0.3,0-0.4-0.1c-0.1-0.1-0.3,0-0.5,0h-0.1
				c-0.1,0-0.2,0-0.2,0c-0.2,0.1-0.5,0-0.7,0.1c-0.3,0-0.5,0-0.7,0.1l0,0l0,0h-0.1l0,0c0,0-0.1,0-0.1,0.1l0,0c-0.1,0-0.1,0-0.1,0
				l0,0c-0.1,0-0.1,0-0.2,0c0,0,0,0-0.1,0l0,0c-0.2,0-0.4,0-0.4-0.1c-0.1,0.1-0.2,0-0.3,0s-0.3,0-0.4,0c-0.2,0-0.3,0-0.4,0l0,0l0,0
				c-0.1,0-0.3,0-0.4,0c0,0,0.1,0,0.3,0.1c0,0,0,0,0.1,0s0.1,0,0.2,0.1c0.1,0,0.2,0,0.3,0l0,0h0.1h0.1c0.3,0.1,0.6,0.1,0.9,0.1
				c0.2,0,0.5,0,0.7,0c0,0,0.1,0.1,0.2,0.1c0.2,0,0.5,0.1,0.7,0c0.1,0.1,0.2,0.1,0.2,0.1c0.1,0,0.1,0,0.2-0.1c0.1,0,0.3,0.1,0.4,0.1
				l0,0c0.1,0,0.2,0,0.3,0.1l0,0v0.3c0-0.1,0.1-0.2,0.1-0.2l0,0c0,0,0,0,0.1,0c0,0.1,0,0.2-0.1,0.1v0.1c0.1,0.1,0.1,0,0.1-0.2
				C-12.4,371.7-12.3,371.7-12.2,371.7z M-10.7,371.6L-10.7,371.6L-10.7,371.6L-10.7,371.6L-10.7,371.6z M-12.7,371.8
				c0-0.1,0-0.1,0-0.2h0.1C-12.7,371.8-12.7,371.8-12.7,371.8z"/>
			<path class="st0" d="M1.9,371.3L1.9,371.3L1.9,371.3L1.9,371.3H1.8c0,0,0,0-0.1,0c0,0,0,0,0.1,0c-0.1-0.1-0.4-0.1-0.7-0.1H1H0.9
				H0.8c-0.1-0.1-0.4,0-0.6-0.1c-0.1,0-0.2,0-0.4-0.1c-0.1-0.1-0.3,0-0.5-0.1h-0.1c-0.1,0-0.2,0-0.2,0c-0.2,0.1-0.4,0-0.6,0
				c-0.1,0-0.3,0-0.4,0c0-0.1,0-0.2,0-0.3l0,0c0.1-0.6,0-1.2-0.2-1.8c0,0,0,0,0,0.1c-0.1-0.4-0.2-0.8-0.5-1.1
				c-0.5-0.6-1.2-1.1-1.7-1.3c-0.3-0.1-0.6-0.2-0.9-0.2c-0.1,0-0.1,0-0.2-0.1l0,0l0,0l0,0c-0.1,0-0.1,0-0.2,0c0.1,0,0.1,0,0.2,0l0,0
				c-0.1,0-0.1,0-0.2,0c-0.4-0.1-0.9-0.2-1-0.3c-0.2,0.1,0.1,0.1,0.4,0.1c-0.2,0-0.5,0-0.7,0l0,0h0.1c0.1,0,0-0.1,0-0.1l0,0
				c0-0.1,0-0.2,0-0.3v-0.1c0-0.1,0-0.2,0-0.2c-0.1-0.2,0-0.4-0.1-0.6c0-0.2,0-0.5-0.1-0.7l0,0l0,0v-0.1l0,0c0,0,0-0.1-0.1-0.1l0,0
				v-0.1l0,0c0-0.1,0-0.1,0-0.2c0,0,0,0,0-0.1l0,0c0-0.2,0-0.3,0.1-0.4c-0.1-0.1,0-0.2,0-0.3s0-0.3,0-0.4s0-0.3,0-0.4l0,0l0,0
				c0-0.1,0-0.3,0-0.4c0,0,0,0-0.1,0.3c0,0,0,0,0,0.1c0,0.1,0,0.1-0.1,0.2c0,0.1,0,0.2,0,0.3l0,0c0,0,0,0,0,0.1v0.1
				c-0.1,0.3-0.1,0.6-0.1,0.9c0,0.2,0,0.4,0,0.6c0,0-0.1,0.1-0.1,0.2c0,0.2-0.1,0.5,0,0.7c-0.1,0.1-0.1,0.2-0.1,0.2
				c0,0.1,0,0.1,0.1,0.2c0,0.1-0.1,0.3-0.1,0.4l0,0c0,0.1,0,0.2-0.1,0.2l0,0h-0.1c-0.1,0-0.1,0-0.2,0l0,0.1h-0.1c0,0,0,0,0.1,0
				c-0.4,0.1-0.8,0.2-1.1,0.4v0.1c-0.1,0,0-0.1,0.1-0.1c-0.3,0.1-0.5,0.2-0.5,0.3c0,0,0.1,0,0.2-0.1c0.1,0,0.2-0.1,0.2-0.1v0.1
				c-0.1,0.1-0.2,0.2-0.3,0.2c-0.2,0.1-0.4,0.1-0.5,0.2l0,0l0,0c-0.1,0-0.2,0.1-0.4,0.1l0,0c0.2-0.1,0.4-0.3,0.5-0.3l-0.3,0.1
				l-0.1,0.1c-0.1,0.1-0.1,0-0.1,0l0,0l0,0l0,0l-0.1,0.1c0,0,0,0,0.1,0c-0.2,0.1-0.3,0.1-0.6,0.3l0,0c-0.1,0.1-0.3,0.2-0.4,0.3
				c0,0-0.1,0.2-0.1,0.3l0,0c0,0.1,0,0.2,0,0.2v0.1c0.1,0,0.3-0.2,0.5-0.3l0,0l0,0l0,0c0.1-0.1,0.3-0.2,0.4-0.3c0.1,0,0.2,0,0.3-0.1
				c0.2,0,0,0.2-0.1,0.3c0.3-0.1,0.6-0.3,1.1-0.6c0.4-0.2,1-0.4,1.4-0.5c0.1,0,0.2-0.2,0.4-0.2l0,0c0,0.1-0.1,0.1-0.1,0.2
				c0.1,0,0.1,0,0.1-0.1c0,0.1,0,0.2,0,0.2s-0.1-0.1,0-0.1h-0.1c0,0.1,0,0.2,0,0.2l0,0h0.1l0,0l0,0c0,0.1,0,0.2,0.1,0.3l0,0
				c0,0,0,0-0.1,0c0,0.1,0,0.1,0.1,0.1v-0.1l0,0l0.1,0.1c0,0.1-0.1,0.1-0.1,0.2l0,0v-0.1l-0.1,0.1l0,0l0,0l0,0l0,0l0,0l0,0l0,0
				l-0.1,0.1l0,0v0.1c0,0,0,0,0.1,0.1l0,0l0,0h0.1c0,0,0-0.1,0.1-0.1l0,0l0,0l0,0v-0.1c0,0,0.1,0,0.1-0.1c0.1,0,0.1,0,0.1,0.1
				c0.2-0.1,0.2-0.4,0.2-0.7l0,0h0.1c0.2,0,0.1-0.1,0.1-0.1s0,0,0-0.1c0,0,0,0,0,0.1h-0.1h0.1h-0.2l0,0l0.1-0.1v-0.1
				c0.1-0.1,0.1-0.2,0.1-0.3c0.6,0.1,1.6,0.1,2.2,0.4c0.4,0.2,0.8,0.4,1.1,0.8c0.2,0.3,0.6,0.8,0.7,1.4l0.1,0.2c0.1,0.2,0,0.6,0,0.6
				c0,0.3,0,0.5,0,0.8c-0.1,0-0.3-0.1-0.3-0.2c-0.1,0.1-0.2,0-0.3,0.1c-0.1,0-0.3,0.1-0.4,0.1c-0.2,0-0.3,0-0.4,0.1l0,0l0,0
				c-0.1,0.1-0.3,0.1-0.4,0.1c0,0,0,0.1,0.3,0.2c0,0,0,0,0.1,0c0.1,0.1,0.1,0.1,0.2,0.1c0.1,0,0.2,0,0.3,0l0,0c0,0,0,0,0.1,0h0.1
				c0.3,0.1,0.5,0.2,0.7,0.2c-0.1,0.2-0.1,0.5-0.2,0.7c-0.3,1-1,1.8-1.8,2.3h-0.1c-0.1,0.1-0.1,0.1-0.2,0.2c-0.1,0-0.1,0.1-0.2,0.1
				c-0.1,0-0.3,0.1-0.3,0.2c-0.1,0-0.1,0-0.1,0c-0.2,0.1-0.4,0.1-0.6,0.2c-0.1,0-0.1,0-0.3,0l0,0c0,0,0,0,0-0.1l0,0l0,0l0,0l0,0l0,0
				c0-0.1,0.1-0.1,0.1-0.2c-0.1,0-0.1,0-0.1,0.1c0-0.1,0-0.1,0-0.2c0,0,0.1,0,0,0.1h0.1v-0.1l0,0h-0.1l0,0l0,0c0-0.1,0-0.1-0.1-0.2
				l0,0c0,0,0,0,0.1,0c0,0,0-0.1-0.1-0.1v0.1l0,0c0,0-0.1,0-0.1-0.1c0-0.1,0.1-0.1,0.1-0.1l0,0v0.1l0.1-0.1l0,0l0,0l0,0l0,0l0,0l0,0
				l0,0l0,0l0,0c0,0,0.1,0,0.1-0.1l0,0c0,0,0,0,0-0.1c0,0,0,0-0.1,0l0,0l0,0h-0.1c0,0,0,0-0.1,0.1l0,0l0,0l0,0v0.1h-0.1
				c-0.1,0-0.1,0-0.1,0c-0.2,0.1-0.2,0.3-0.2,0.5c0,0,0.1,0,0.1,0.1h-0.1v0.1c-0.1,0.1-0.1,0.3-0.1,0.4c-0.2,0-0.4-0.1-0.6-0.1v-0.1
				c-0.1,0,0,0,0,0c-0.1,0-0.2-0.1-0.3-0.1c-0.3,0.1-0.7-0.1-1.1-0.1c-0.4-0.1-1-0.3-1.2-0.6c-0.4-0.4-0.6-0.8-0.9-1.1l0,0l0,0
				c0,0,0,0,0-0.1c-0.3-0.4-0.5-0.9-0.6-1.3c-0.3,0.1-0.6,0.2-0.6,1.2c0,0.1,0.1,0.3,0.1,0.5s0.1,0.5,0.2,0.8
				c0.2,0.2,0.5,0.6,0.9,0.9c0.1,0.1,0.1,0.1,0.2,0.1l0.1,0.1c0.1,0.1,0.3,0.1,0.4,0.2c0.1,0,0.2,0.1,0.3,0.1c1,0.6,2.1,0.8,3.1,0.7
				c0,0.1,0,0.1,0,0.2c0,0.2,0,0.3,0.1,0.5l0,0l0,0c0,0,0,0,0,0.1l0,0c0,0,0,0,0.1,0l0,0v0.1l0,0c0,0.2,0,0.4-0.1,0.5
				c0.1,0.1,0,0.1,0,0.2s0,0.2,0,0.3c0,0.1,0,0.2,0,0.3l0,0l0,0c0,0.1,0,0.2,0,0.3c0,0,0.1,0,0.1-0.2l0,0c0,0,0-0.1,0.1-0.1
				c0-0.1,0-0.1,0-0.2l0,0v-0.1c0.1-0.2,0.1-0.4,0.1-0.6c0-0.2,0-0.3,0-0.5l0.1-0.1c0-0.2,0.1-0.4,0-0.5c0.1-0.1,0.1-0.1,0.1-0.1
				l0,0h0.1c1-0.1,2-0.6,2.6-1.3c0.2,0,0.4-0.1,0.7-0.3c0.8-0.6,1.4-1.9,1.3-2.7c0.1-0.1,0.1-0.2,0.1-0.3c0.2,0,0.4,0,0.6-0.2
				c0.1,0.1,0.1,0.1,0.2,0c0.1,0,0.1-0.1,0.2-0.1c0.1,0,0.3,0,0.4,0l0,0c0.1,0,0.2,0,0.2,0c0.2,0,0.3,0,0.5,0c0.1,0,0.1,0,0.2,0h0.1
				l0,0l0,0l0,0l0,0c0,0,0,0,0.1,0s0.2,0,0.2,0.1c0-0.1,0,0-0.1,0c0.1,0,0.2,0,0.2,0H1.1l0,0c0.1,0,0.1,0,0.2,0h0.1l0,0l0,0l0,0
				c0.1,0,0.2,0,0.3,0l0,0l0,0c0.1,0,0.1,0,0.1,0H1.7l0,0h0.1c0.1,0,0.1,0,0.2,0l0,0H1.9H2l0,0l0,0l0,0l0,0l0,0l0,0l0,0h0.1l0,0
				C1.9,371.4,1.9,371.4,1.9,371.3C1.9,371.4,2,371.4,1.9,371.3C2,371.4,2,371.4,1.9,371.3C2,371.4,2,371.4,1.9,371.3
				c0.1,0,0.1,0,0.1,0C2,371.4,2,371.4,1.9,371.3z M-10.3,367.1L-10.3,367.1C-10.4,367.2-10.4,367.2-10.3,367.1
				C-10.4,367.2-10.4,367.1-10.3,367.1z M-7.6,367.9L-7.6,367.9L-7.6,367.9C-7.5,367.9-7.5,367.9-7.6,367.9
				C-7.5,367.9-7.6,367.9-7.6,367.9z M1.7,371.4L1.7,371.4L1.7,371.4L1.7,371.4L1.7,371.4z"/>
			<path class="st0" d="M-9.2,371.6L-9.2,371.6v0.1c0.1,0.3,0.2,0.6,0.4,0.7c0.1,0.1,0.2,0.1,0.3,0.2l0.1,0.1l0,0l0,0l0,0l0,0
				c0,0,0,0,0.1,0c0.1,0.1,0.3,0.2,0.3,0.3c0.1,0,0-0.1-0.1-0.1c0.1,0.1,0.3,0.1,0.4,0.2c-0.1,0-0.1,0-0.2-0.1l0,0
				c0.1,0,0.3,0.1,0.3,0.1s0,0,0.1,0h0.1l0,0l0,0c0.1,0,0.3,0.1,0.4,0l0,0l0,0c0.1,0,0.2,0,0.2,0H-7l0,0c0.1,0,0.1,0,0.1,0
				c0.1,0,0.2,0,0.4,0.1l0,0c-0.1,0-0.2,0-0.2,0h0.1l0,0l0,0l0,0l0,0l0,0h0.1l0,0c0.1,0,0.1,0.1,0.3,0l0,0c0.1,0,0.1,0,0.2,0
				c0,0,0.1,0,0.1-0.1l0,0V373l0,0c0,0-0.1,0-0.2,0l0,0l0,0l0,0c-0.1,0-0.1,0-0.2,0h-0.1c-0.1,0,0-0.1,0.1-0.1c-0.2-0.1-0.6,0-1-0.1
				c-0.1,0-0.1,0-0.2,0l-0.1-0.1c-0.1,0-0.1,0-0.2-0.1c-0.2-0.2-0.5-0.3-0.6-0.5c-0.1-0.1-0.2-0.2-0.2-0.4c0-0.1-0.1-0.3,0-0.5v-0.1
				c0-0.1,0.1-0.2,0.1-0.2c0.1-0.3,0.3-0.5,0.4-0.7c0.2-0.3,0.6-0.4,0.9-0.5l0,0h0.1H-7h0.1l0,0c0.1,0,0.1,0,0.2,0c0,0,0,0,0.1,0
				l0,0c0.2,0.1,0.4,0.2,0.4,0.3c0.1,0,0.2,0.1,0.3,0.2s0.3,0.2,0.3,0.3c0,0.2,0.1,0.3,0.1,0.5l0,0l0,0c0,0.2,0.1,0.3,0.1,0.5
				c0.1,0,0.3,0.1,0.4-0.3c0-0.1,0-0.1,0-0.2c0-0.1,0.1-0.2,0.1-0.3s-0.1-0.3-0.2-0.5v-0.1l-0.1-0.1c0-0.1-0.1-0.1-0.1-0.1
				c-0.3-0.5-0.8-0.7-1.2-0.8s-0.8-0.1-1.1,0.1c-0.1,0-0.2-0.1-0.3,0c-0.4,0.1-0.8,0.4-0.8,0.7c-0.1,0.1-0.2,0.2-0.2,0.2
				c0,0.1,0,0.2-0.1,0.3c-0.1,0.2-0.2,0.4-0.2,0.6l0,0v0.1C-9.2,371.4-9.2,371.5-9.2,371.6z M-6.6,373.1L-6.6,373.1L-6.6,373.1
				L-6.6,373.1z"/>
		</g>
	</g>
</g>
<g id="Layer_2">
</g>
</svg>
