<?xml version="1.0" encoding="utf-8"?>
<!-- Generator: Adobe Illustrator 19.1.0, SVG Export Plug-In . SVG Version: 6.00 Build 0)  -->
<svg version="1.1" xmlns="http://www.w3.org/2000/svg" xmlns:xlink="http://www.w3.org/1999/xlink" x="0px" y="0px"
	 viewBox="0 0 302.2 79.3" style="enable-background:new 0 0 302.2 79.3;" xml:space="preserve">
<style type="text/css">
	.st0{fill:#FFFFFF;}
</style>
<g id="Layer_1">
	<g>
		<path class="st0" d="M94.3,38.1c0-4.6-1.3-8.3-3.8-11c-2.5-2.7-6.1-4-10.6-4c-3.9,0-7.4,1.1-10.4,3.2c-3,2.1-5.3,5.1-7,9
			c-1.7,3.8-2.5,8.1-2.5,12.7c0,4.6,1.3,8.2,3.9,10.8c2.6,2.7,6.2,4,10.6,4c3.8,0,7.2-1,10.2-3.1c3-2.1,5.3-5,7-8.8
			C93.5,47,94.3,42.8,94.3,38.1z M84.7,47.1c-0.9,2.8-2.2,5-3.9,6.6c-1.7,1.6-3.5,2.4-5.6,2.4c-2.2,0-3.9-0.7-5.1-2.1
			c-1.1-1.4-1.7-3.3-1.7-5.9c0-3.2,0.5-6.3,1.4-9.1c0.9-2.8,2.3-5.1,4-6.7c1.7-1.7,3.6-2.5,5.8-2.5c2.1,0,3.7,0.7,4.9,2.1
			c1.1,1.4,1.7,3.3,1.7,5.8C86.1,41.2,85.6,44.3,84.7,47.1z"/>
		<path class="st0" d="M109.7,48.7c0.9,0.2,2,0.3,3.2,0.3c4.6,0,8.3-1.3,11.1-3.9c2.8-2.6,4.1-6.2,4.1-10.7c0-1.8-0.3-3.4-1-4.8
			l6.7-1.1l1.1-4.8h-13.3c-1.9-0.5-3.7-0.7-5.6-0.7c-4.7,0-8.4,1.4-11.2,4.2c-2.8,2.8-4.3,6.4-4.3,11c0,4,1.6,6.9,4.7,8.8
			c-2.3,1.1-4,2.2-5.1,3.4c-1.1,1.2-1.6,2.6-1.6,4.2c0,1.9,0.9,3.4,2.6,4.4c-3.6,1.2-6.2,2.7-7.8,4.4c-1.6,1.7-2.4,3.8-2.4,6.2
			c0,3,1.3,5.4,3.9,7.2c2.6,1.7,6.2,2.6,10.9,2.6c6.4,0,11.4-1.2,14.9-3.7c3.5-2.5,5.2-6,5.2-10.5c0-2.8-0.9-5-2.6-6.5
			c-1.8-1.5-4.7-2.5-8.8-3l-4.4-0.6c-1.4-0.2-2.5-0.4-3.2-0.8c-0.7-0.3-1.1-0.9-1.1-1.8C105.8,50.8,107.1,49.6,109.7,48.7z
			 M109.2,33.5c0.6-1.5,1.5-2.8,2.6-3.7c1.1-0.9,2.5-1.3,4-1.3c3.1,0,4.6,1.6,4.6,4.9c0,1.9-0.3,3.6-0.9,5.2
			c-0.6,1.6-1.5,2.8-2.6,3.7c-1.1,0.9-2.4,1.4-3.9,1.4c-1.5,0-2.7-0.4-3.5-1.3c-0.8-0.9-1.2-2.2-1.2-3.8
			C108.3,36.7,108.6,35,109.2,33.5z M106.4,61.5l4.8,0.5c2.6,0.3,4.4,0.8,5.5,1.4c1,0.7,1.6,1.6,1.6,2.8c0,2.3-1.1,4.1-3.2,5.4
			c-2.1,1.3-5.1,1.9-8.9,1.9c-2.6,0-4.6-0.4-5.9-1.3c-1.3-0.9-1.9-2.1-1.9-3.6c0-1.8,0.7-3.3,2.1-4.6
			C101.8,62.8,103.8,61.9,106.4,61.5z"/>
		<polygon class="st0" points="132.8,62.2 141,62.2 149.2,23.7 141,23.7 		"/>
		<path class="st0" d="M175.3,11.3h-11.9l-10.7,50.8h12.2c6.1,0,11.4-1.3,15.9-3.8c4.5-2.5,8-6.1,10.4-10.7c2.4-4.6,3.7-10,3.7-16
			c0-6.6-1.7-11.7-5-15.1C186.6,13.1,181.7,11.3,175.3,11.3z M185.8,44.9c-1.9,3.9-4.6,6.9-8.2,9C174.1,56,170,57,165.3,57h-5.6
			l8.7-40.6h6.2c4.6,0,8.1,1.3,10.5,3.8c2.4,2.6,3.6,6.3,3.6,11.3C188.6,36.6,187.7,41,185.8,44.9z"/>
		<path class="st0" d="M227.4,27.5c-2.5-2.6-6-3.9-10.4-3.9c-3.5,0-6.7,1-9.6,3.1c-2.9,2.1-5.2,5.1-6.8,8.9c-1.7,3.9-2.5,8-2.5,12.4
			c0,4.5,1.3,8.1,3.8,10.7c2.5,2.6,6,3.9,10.5,3.9c3.6,0,6.8-1.1,9.7-3.2c2.9-2.1,5.1-5.1,6.8-9c1.7-3.9,2.5-8,2.5-12.3
			C231.2,33.7,229.9,30.1,227.4,27.5z M223.5,48.1c-1.1,3.1-2.6,5.5-4.5,7.2c-1.9,1.7-4.1,2.5-6.5,2.5c-2.8,0-4.9-0.8-6.3-2.5
			c-1.5-1.7-2.2-4-2.2-7c0-3.7,0.6-7.1,1.7-10.2c1.1-3,2.7-5.4,4.7-7.1c2-1.7,4.3-2.6,6.8-2.6c2.5,0,4.4,0.8,5.9,2.5
			c1.4,1.7,2.2,3.8,2.2,6.5C225.2,41.4,224.6,45,223.5,48.1z"/>
		<path class="st0" d="M258,23.4c-4.5,0-8.8,2.6-12.9,7.9h-0.3l0.9-7.3h-4.8l-11.7,55.2h5.8c2.5-11.8,3.8-18.2,4-19.3
			c0.2-1,0.3-1.9,0.4-2.4l0.1-1.3h0.3c0.9,2.1,2.2,3.7,3.9,4.9c1.7,1.2,3.7,1.7,5.9,1.7c3.6,0,6.8-1.1,9.6-3.4
			c2.8-2.3,5-5.5,6.6-9.6c1.6-4.1,2.4-8.6,2.4-13.5c0-4.1-0.9-7.2-2.7-9.5C263.6,24.6,261.1,23.4,258,23.4z M260.4,47.2
			c-1.2,3.5-2.8,6.1-4.8,8c-2,1.9-4.1,2.8-6.4,2.8c-2.4,0-4.3-0.7-5.6-2c-1.3-1.4-1.9-3.3-1.9-5.9c0-3.5,0.7-6.9,2-10.3
			c1.4-3.3,3.2-6.1,5.5-8.3c2.3-2.2,4.6-3.3,6.8-3.3c4.1,0,6.2,2.6,6.2,7.9C262.2,40,261.6,43.7,260.4,47.2z"/>
		<path class="st0" d="M279.9,45.5c7.2,0,12.7-1.2,16.5-3.6c3.8-2.4,5.8-5.6,5.8-9.8c0-2.8-0.9-4.9-2.7-6.4c-1.8-1.5-4.4-2.3-8-2.3
			c-3.4,0-6.6,1.1-9.4,3.3c-2.9,2.2-5.1,5.3-6.9,9.3c-1.7,4-2.6,8.2-2.6,12.5c0,4.5,1.2,8,3.7,10.5c2.4,2.5,5.8,3.8,10,3.8
			c2,0,3.9-0.2,5.5-0.6c1.7-0.4,3.6-1.1,5.8-2.1V55c-2.3,1.1-4.2,1.9-5.8,2.3c-1.5,0.4-3,0.6-4.5,0.6c-3,0-5.2-0.9-6.6-2.6
			c-1.4-1.7-2.1-4.1-2.1-7.1l0.1-2.8H279.9z M284.4,31.6c2.1-2.2,4.3-3.3,6.7-3.3c1.8,0,3.1,0.4,4,1.2c0.8,0.8,1.3,1.8,1.3,3.1
			c0,2.6-1.4,4.6-4.2,6c-2.8,1.4-6.9,2.1-12.1,2.1h-0.4C280.7,36.8,282.3,33.8,284.4,31.6z"/>
		<path class="st0" d="M40,11.6c5.4,0.8,6,7.1,6,7.1c0-3.9-2-7.7-7.3-8.1c-2.7-0.2-4.5-0.8-6-1.4c1.7,0.5,4,0.8,6.7,0.8
			c5.1,0,7.6,4.2,7.6,8.1c0,2.5-0.9,4.5-2.6,5.8c0,0-0.1,0-0.1,0.1c1.4,1,2.7,2,4,3.1c0.3,0.2,0.5,0.4,0.8,0.6
			c1.3-0.7,2.5-1.6,3.4-2.7c2-2.2,3-5,3-8.3c0-3.7-1.3-6.5-3.9-8.5C49,6.4,45.2,5.4,40.2,5.4H26.5c0,0,0.1,0.2,0.4,0.5
			C30.7,10.8,34.7,10.8,40,11.6z"/>
		<path class="st0" d="M55.5,41.6c-0.3-3-2.6-6.3-5.8-9.5c-1.4-1.4-3-2.9-4.7-4.2c-3.9-3.2-8.3-6.2-12.1-8.5
			c-2.8-1.8-8.9-5.8-11.5-7.5l4.4-1.9l-1.3-1l-5.7,0.7l-3.1-1.3l-0.4-5.5l0.1-0.3l0.3,0.1l0.1-0.3c0,0-2.8-1.6-3.6-2.1
			C11.2-0.1,12,0.5,12,0.5l1.5,1c0,0-1.8,1.6-3.3,3C7.9,1.4,4.9,1.6,4.9,1.6s-5.9-2.8-4.8-1.1c1.1,1.7,5.1,4.3,5.2,4.3
			c0,0-0.4,0.8,0.7,1.7l4.5,2.9c0,0,3.3,6.6,3.6,7.7c-2.5-1.1-1.8-0.5-1.8-0.5l4.1,1.9l0.2-0.4L16.1,18l-0.6-4.8l0.1-0.4l2,1
			l0.4,1.3c0,0,0.7,2.9,1.1,3.4c0.4,0.5,1.2,0.3,1.2,0.3l0.3-2.3c3,2,8.5,5.5,11,7.1c-3.3-3.2-7.7-6.6-11.1-8.9
			c0.2-0.1,0.4-0.2,0.4-0.2s0-0.1,0.1-0.2c3.4,2.6,9.2,6.8,11.3,8.3c2.8,2.2,5.4,4.2,7.4,6.3c5.2,5.2,7.9,10.3,6.7,16.6
			c0,0.2-0.1,0.4-0.1,0.6c-0.1,0.5-0.2,0.9-0.3,1.3c-0.5,1.8-1.4,3.3-2.9,4.4c-1,0.8-2.3,1.5-3.7,1.9c-1.6,0.5-3.3,0.7-5.3,0.7h-7.3
			c0-0.2,0.1-0.5,0.1-0.7c0.7-4.6,1.4-10.7,1.5-15.7c-0.7,3.7-2.4,12.2-3.1,15.7c-0.1,0.3-0.1,0.5-0.1,0.7h-1.2c0,0,0-0.3,0.1-0.7
			c0.5-2.6,2.2-11.8,3.2-17.2c1.3-7.4-4.5-12.6-4.5-12.6l-6.3,29.9l-1.8,8.6h19.2c6.1,0,11-1.2,14.8-3.7c0,0,0,0,0,0
			c1.3-0.7,3.3-2.1,4.9-4.8c0.4-0.7,0.8-1.6,1.2-2.5c0.8-2.1,1.3-4.5,1.3-7.1C55.8,43.3,55.7,42.4,55.5,41.6L55.5,41.6z"/>
		<path class="st0" d="M141.4,14L141.4,14c0,0.1,0,0.1,0,0.1C141.4,14.1,141.4,14.1,141.4,14C141.4,14,141.4,14,141.4,14z"/>
		<path class="st0" d="M144.1,8.9L144.1,8.9C144.1,8.9,144.1,8.9,144.1,8.9L144.1,8.9z"/>
		<path class="st0" d="M144.2,8.8C144.2,8.9,144.1,8.9,144.2,8.8c0.2,0,0.1,0.1,0.3-0.1L144.2,8.8z"/>
		<path class="st0" d="M144.1,9L144.1,9c-0.3,0.2-0.5,0.2-0.8,0.5C143.6,9.3,143.9,9.1,144.1,9z"/>
		<path class="st0" d="M143.4,10.6c-0.1,0.2-0.2,0.2-0.4,0.4l0,0l0,0c0.2,0,0.3-0.3,0.5-0.3L143.4,10.6z"/>
		<path class="st0" d="M146,9.6c0.2,0,0-0.1,0.1-0.2c-0.1,0.1-0.2,0-0.3,0c0,0,0.3,0.1,0.1,0.1C146,9.5,146.1,9.5,146,9.6z"/>
		<path class="st0" d="M137,13.6c0.1,0,0.1,0,0.2,0.1c0.1,0,0.2,0,0.3,0l0,0c0,0,0.1,0,0.1,0c0,0,0.1,0,0.1,0
			c0.3,0.1,0.6,0.1,0.9,0.1c0.2,0,0.5,0,0.7,0c0,0,0.1,0.1,0.2,0.1c0.2,0,0.5,0.1,0.7,0c0.1,0.1,0.2,0.1,0.2,0.1
			c0.1,0,0.1,0,0.2-0.1c0.1,0,0.3,0.1,0.4,0.1l0,0c0.1,0,0.2,0,0.3,0.1l0,0l0,0.3c0-0.1,0.1-0.2,0.1-0.2l0,0c0,0,0,0,0.1,0
			c0,0.1,0,0.2-0.1,0.1c0,0,0,0.1,0,0.1c0.1,0.1,0.1,0,0.1-0.2c0.1,0,0.2,0,0.3,0c0.1,0,0.1,0,0.2,0c0,0,0.1,0,0.1,0l0,0
			c0,0,0,0,0,0c0,0,0,0,0,0l0,0c0,0,0,0,0.1,0c0.1,0,0.2,0.1,0.2,0.1c0-0.1,0-0.1-0.1-0.1c0,0,0.1,0,0.2,0c0,0,0,0.1,0,0.1
			c0.1,0,0.2,0,0.2,0c0,0,0,0,0.1,0l0-0.1l0,0c0,0,0,0,0,0c0.1,0,0.2,0,0.3-0.1c0,0,0,0,0,0c0,0,0,0,0,0.1c0.1,0,0.1,0,0.1-0.1
			l-0.1,0c0,0,0,0,0,0c0,0,0.1-0.1,0.1-0.1c0.1,0,0.2,0.1,0.2,0.1c0,0,0,0,0,0c0,0-0.1,0-0.1,0l0.1,0.1l0,0c0,0,0,0,0,0l0,0
			c0,0,0,0,0,0l0,0l0,0c0,0,0,0,0,0c0,0,0.1,0.1,0.2,0.1c0,0,0,0,0,0c0,0,0.1,0,0.1,0c0,0,0,0,0.1-0.1c0,0,0,0,0,0c0,0,0,0,0,0
			c0,0,0-0.1,0-0.1c0,0-0.1,0-0.1-0.1l0,0l0,0c0,0,0,0,0,0c0,0-0.1,0-0.1,0c0,0,0-0.1-0.1-0.1c0-0.1,0-0.1,0.1-0.1
			c-0.1-0.2-0.5-0.2-0.7-0.2c0,0-0.1,0.1-0.1,0.1l-0.1-0.1c0,0-0.1,0-0.1,0c-0.2-0.2-0.5-0.1-0.6-0.1c-0.1,0-0.3,0-0.4-0.1
			c-0.1-0.1-0.3,0-0.5,0l-0.1,0c-0.1,0-0.2,0-0.2,0c-0.2,0.1-0.5,0-0.7,0.1c-0.3,0-0.5,0-0.7,0.1c0,0-0.1,0-0.1,0l0,0
			c0,0-0.1,0-0.1,0.1c0,0,0,0,0,0c-0.1,0-0.1,0-0.1,0c0,0,0,0,0,0c-0.1,0-0.1,0-0.2,0c0,0,0,0-0.1,0l0,0c-0.2,0-0.4,0-0.4-0.1
			c-0.1,0.1-0.2,0-0.3,0c-0.1,0-0.3,0-0.4,0c-0.2,0-0.3,0-0.4,0c0,0,0,0,0,0c0,0,0,0,0,0c-0.1,0-0.3,0-0.4,0
			C136.7,13.5,136.7,13.5,137,13.6C136.9,13.6,137,13.6,137,13.6z M143.3,13.9C143.3,13.9,143.3,13.9,143.3,13.9
			C143.3,13.9,143.3,13.9,143.3,13.9C143.3,13.9,143.3,13.9,143.3,13.9L143.3,13.9z M142.5,14C142.5,14,142.4,14.1,142.5,14
			C142.4,14,142.5,14,142.5,14z M141.3,14C141.3,14,141.3,14,141.3,14c0,0.1,0,0.1,0,0.2C141.3,14.1,141.3,14,141.3,14z"/>
		<path class="st0" d="M152.7,13.9c0.1,0.1,0.1,0.1,0.2,0c0.1,0,0.1-0.1,0.2-0.1c0.1,0,0.3,0,0.4,0l0,0c0.1,0,0.2,0,0.2,0
			c0.2,0,0.3,0,0.5,0c0.1,0,0.1,0,0.2,0c0,0,0.1,0,0.1,0l0,0c0,0,0,0,0,0c0,0,0,0,0,0l0,0c0,0,0,0,0.1,0c0.1,0,0.2,0,0.2,0.1
			c0-0.1,0,0-0.1,0c0,0,0.1,0,0.1,0c0,0,0,0,0,0c0.1,0,0.1,0,0.2,0c0,0,0.1,0,0.1,0l0,0l0,0c0,0,0,0,0,0c0.1,0,0.2,0,0.3,0
			c0,0,0,0,0,0c0,0,0,0,0,0c0.1,0,0.1,0,0.1,0l-0.1,0c0,0,0,0,0,0c0,0,0.1,0,0.1,0c0.1,0,0.1,0,0.2,0c0,0,0,0,0,0c0,0-0.1,0-0.1,0
			l0.1,0l0,0c0,0,0,0,0,0l0,0c0,0,0,0,0,0l0,0l0,0c0,0,0,0,0,0c0,0,0.1,0,0.1,0c0,0,0,0,0,0c0,0,0.1,0,0.1,0c0,0,0,0,0.1,0
			c0,0,0,0,0,0c0,0,0,0,0,0c0,0,0,0,0,0c0,0-0.1,0-0.1,0l0,0l0,0c0,0,0,0,0,0c0,0-0.1,0-0.1,0c0,0,0,0-0.1,0c0,0,0,0,0.1,0
			c-0.1-0.1-0.4-0.1-0.7-0.1c0,0-0.1,0-0.1,0l-0.1,0c0,0-0.1,0-0.1,0c-0.1-0.1-0.4,0-0.6-0.1c-0.1,0-0.2,0-0.4-0.1
			c-0.1-0.1-0.3,0-0.5-0.1l-0.1,0c-0.1,0-0.2,0-0.2,0c-0.2,0.1-0.4,0-0.6,0c-0.1,0-0.3,0-0.4,0c0-0.1,0-0.2,0-0.3c0,0,0,0,0,0
			c0.1-0.6,0-1.2-0.2-1.8c0,0,0,0,0,0.1c-0.1-0.4-0.2-0.8-0.5-1.1c-0.5-0.6-1.2-1.1-1.7-1.3c-0.3-0.1-0.6-0.2-0.9-0.2
			c-0.1,0-0.1,0-0.2-0.1c0,0,0,0,0,0c0,0,0,0,0,0l0,0c-0.1,0-0.1,0-0.2,0c0.1,0,0.1,0,0.2,0l0,0c-0.1,0-0.1,0-0.2,0
			c-0.4-0.1-0.9-0.2-1-0.3c-0.2,0.1,0.1,0.1,0.4,0.1c-0.2,0-0.5,0-0.7,0c0,0,0,0,0,0c0,0,0.1,0,0.1,0c0.1,0,0-0.1,0-0.1c0,0,0,0,0,0
			c0-0.1,0-0.2,0-0.3l0-0.1c0-0.1,0-0.2,0-0.2c-0.1-0.2,0-0.4-0.1-0.6c0-0.2,0-0.5-0.1-0.7v0v0c0,0,0-0.1,0-0.1l0,0
			c0,0,0-0.1-0.1-0.1c0,0,0,0,0,0c0,0,0-0.1,0-0.1c0,0,0,0,0,0c0-0.1,0-0.1,0-0.2c0,0,0,0,0-0.1l0,0c0-0.2,0-0.3,0.1-0.4
			c-0.1-0.1,0-0.2,0-0.3c0-0.1,0-0.3,0-0.4c0-0.1,0-0.3,0-0.4c0,0,0,0,0,0c0,0,0,0,0,0c0-0.1,0-0.3,0-0.4c0,0,0,0-0.1,0.3
			c0,0,0,0,0,0.1c0,0.1,0,0.1-0.1,0.2c0,0.1,0,0.2,0,0.3l0,0c0,0,0,0,0,0.1c0,0,0,0.1,0,0.1c-0.1,0.3-0.1,0.6-0.1,0.9
			c0,0.2,0,0.4,0,0.7c0,0-0.1,0.1-0.1,0.2c0,0.2-0.1,0.5,0,0.7c-0.1,0.1-0.1,0.2-0.1,0.2c0,0.1,0,0.1,0.1,0.2c0,0.1-0.1,0.3-0.1,0.4
			l0,0c0,0.1,0,0.2-0.1,0.2c0,0,0,0,0,0c0,0-0.1,0-0.1,0c-0.1,0-0.1,0-0.2,0L146,8.4l-0.1,0c0,0,0,0,0.1,0c-0.4,0.1-0.8,0.2-1.1,0.4
			c0,0,0,0.1,0,0.1c-0.1,0,0-0.1,0.1-0.1c-0.3,0.1-0.5,0.2-0.5,0.3c0,0,0.1,0,0.2-0.1c0.1,0,0.2-0.1,0.2-0.1c0,0,0,0.1,0,0.1
			c-0.1,0.1-0.2,0.2-0.3,0.2c-0.2,0.1-0.4,0.1-0.5,0.2c0,0,0,0,0,0c0,0,0,0,0,0c-0.1,0-0.2,0.1-0.4,0.1c0,0,0,0,0,0
			c0.2-0.1,0.4-0.3,0.5-0.3l-0.3,0.1l-0.1,0.1c-0.1,0.1-0.1,0-0.1,0l0,0c0,0,0,0,0,0l0,0l-0.1,0.1c0,0,0,0,0.1,0
			c-0.2,0.1-0.3,0.1-0.6,0.3c0,0,0,0,0,0c-0.1,0.1-0.3,0.2-0.4,0.3c0,0-0.1,0.2-0.1,0.3c0,0,0,0,0,0c0,0.1,0,0.2,0,0.2
			c0,0,0,0.1,0,0.1c0.1,0,0.3-0.2,0.5-0.3l0,0l0,0c0,0,0,0,0,0c0.1-0.1,0.3-0.2,0.4-0.3c0.1,0,0.2,0,0.3-0.1c0.2,0,0,0.2-0.1,0.3
			c0.3-0.1,0.6-0.3,1.1-0.6c0.4-0.2,1-0.4,1.4-0.5c0.1,0,0.2-0.2,0.4-0.2l0,0c0,0.1-0.1,0.1-0.1,0.2c0.1,0,0.1,0,0.1-0.1
			c0,0,0,0.1,0,0.1c0,0-0.1,0-0.1,0c0,0.1,0,0.2,0,0.2c0,0,0,0,0,0l0.1,0l0,0c0,0,0,0,0,0c0,0.1,0,0.2,0.1,0.3c0,0,0,0,0,0
			c0,0,0,0-0.1,0c0,0.1,0,0.1,0.1,0.1l0-0.1c0,0,0,0,0,0c0,0,0.1,0.1,0.1,0.1c0,0.1-0.1,0.1-0.1,0.2c0,0,0,0,0,0c0,0,0-0.1,0-0.1
			l-0.1,0.1l0,0c0,0,0,0,0,0l0,0c0,0,0,0,0,0l0,0l0,0c0,0,0,0,0,0c0,0-0.1,0.1-0.1,0.1c0,0,0,0,0,0c0,0,0,0.1,0,0.1c0,0,0,0,0.1,0.1
			c0,0,0,0,0,0c0,0,0,0,0,0c0,0,0.1,0,0.1,0c0,0,0-0.1,0.1-0.1l0,0l0,0c0,0,0,0,0,0c0,0,0-0.1,0-0.1c0,0,0.1,0,0.1-0.1
			c0.1,0,0.1,0,0.1,0.1c0.2-0.1,0.2-0.4,0.2-0.7c0,0,0,0,0,0l0.1,0c0.2,0,0.1-0.1,0.1-0.1c0,0,0,0,0-0.1c0,0,0,0,0,0.1
			c0,0-0.1,0-0.1,0c0,0,0.1,0,0.1,0l-0.2,0c0,0,0,0,0,0l0.1-0.1c0,0,0-0.1,0-0.1c0.1-0.1,0.1-0.2,0.1-0.3c0.6,0.1,1.6,0.1,2.2,0.4
			c0.4,0.2,0.8,0.4,1.1,0.8c0.2,0.3,0.6,0.8,0.7,1.4l0.1,0.2c0.1,0.2,0,0.6,0,0.6c0,0.3,0,0.5,0,0.8c-0.1,0-0.3-0.1-0.3-0.2
			c-0.1,0.1-0.2,0-0.3,0.1c-0.1,0-0.3,0.1-0.4,0.1c-0.2,0-0.3,0-0.4,0.1c0,0,0,0,0,0c0,0,0,0,0,0c-0.1,0.1-0.3,0.1-0.4,0.1
			c0,0,0,0.1,0.3,0.2c0,0,0,0,0.1,0c0.1,0.1,0.1,0.1,0.2,0.1c0.1,0,0.2,0,0.3,0l0,0c0,0,0,0,0.1,0c0,0,0.1,0,0.1,0
			c0.3,0.1,0.5,0.2,0.7,0.2c-0.1,0.2-0.1,0.5-0.2,0.7c-0.3,1-1,1.8-1.8,2.3l-0.1,0c-0.1,0.1-0.1,0.1-0.2,0.2c-0.1,0-0.1,0.1-0.2,0.1
			c-0.1,0-0.3,0.1-0.3,0.2c-0.1,0-0.1,0-0.1,0c-0.2,0.1-0.4,0.1-0.6,0.2c-0.1,0-0.1,0-0.3,0c0,0,0,0,0,0c0,0,0,0,0-0.1l0,0
			c0,0,0,0,0,0c0,0,0,0,0,0l0,0c0,0,0,0,0,0c0-0.1,0.1-0.1,0.1-0.2c-0.1,0-0.1,0-0.1,0.1c0,0,0-0.1,0-0.1c0,0,0.1,0,0.1,0
			c0,0,0-0.1,0-0.1c0,0,0,0,0,0l-0.1,0l0,0c0,0,0,0,0,0c0-0.1,0-0.1-0.1-0.2c0,0,0,0,0,0c0,0,0,0,0.1,0c0,0,0-0.1-0.1-0.1l0,0.1
			c0,0,0,0,0,0c0,0-0.1,0-0.1-0.1c0-0.1,0.1-0.1,0.1-0.1c0,0,0,0,0,0c0,0,0,0.1,0,0.1l0.1-0.1l0,0c0,0,0,0,0,0l0,0c0,0,0,0,0,0l0,0
			l0,0c0,0,0,0,0,0l0,0c0,0,0,0,0,0c0,0,0.1,0,0.1-0.1c0,0,0,0,0,0c0,0,0,0,0-0.1c0,0,0,0-0.1,0c0,0,0,0,0,0c0,0,0,0,0,0
			c0,0-0.1,0-0.1,0c0,0,0,0-0.1,0.1l0,0l0,0c0,0,0,0,0,0c0,0,0,0.1,0,0.1c0,0-0.1,0-0.1,0c-0.1,0-0.1,0-0.1,0
			c-0.2,0.1-0.2,0.3-0.2,0.5c0,0,0.1,0,0.1,0.1l-0.1,0c0,0,0,0.1,0,0.1c-0.1,0.1-0.1,0.3-0.1,0.4c-0.2,0-0.4-0.1-0.6-0.1l0-0.1
			c-0.1,0,0,0,0,0c-0.1,0-0.2-0.1-0.3-0.1c-0.3,0.1-0.7-0.1-1.1-0.1c-0.4-0.1-1-0.3-1.2-0.6c-0.4-0.4-0.6-0.8-0.9-1.1c0,0,0,0,0,0
			c0,0,0,0,0,0c0,0,0,0,0-0.1c-0.3-0.4-0.5-0.9-0.6-1.3c-0.3,0.1-0.6,0.2-0.6,1.2c0,0.1,0.1,0.3,0.1,0.5c0,0.2,0.1,0.5,0.2,0.8
			c0.2,0.2,0.5,0.6,0.9,0.9c0.1,0.1,0.1,0.1,0.2,0.1c0,0,0.1,0.1,0.1,0.1c0.1,0.1,0.3,0.1,0.4,0.2c0.1,0,0.2,0.1,0.3,0.1
			c1,0.6,2.1,0.8,3.1,0.7c0,0.1,0,0.1,0,0.2c0,0.2,0,0.3,0.1,0.5l0,0c0,0,0,0,0,0.1l0,0c0,0,0,0,0.1,0c0,0,0,0,0,0c0,0,0,0.1,0,0.1
			c0,0,0,0,0,0c0,0.2,0,0.4-0.1,0.5c0.1,0.1,0,0.1,0,0.2c0,0.1,0,0.2,0,0.3c0,0.1,0,0.2,0,0.3c0,0,0,0,0,0c0,0,0,0,0,0
			c0,0.1,0,0.2,0,0.3c0,0,0.1,0,0.1-0.2c0,0,0,0,0,0c0,0,0-0.1,0.1-0.1c0-0.1,0-0.1,0-0.2l0,0c0,0,0-0.1,0-0.1
			c0.1-0.2,0.1-0.4,0.1-0.6c0-0.2,0-0.3,0-0.5c0,0,0.1-0.1,0.1-0.1c0-0.2,0.1-0.4,0-0.5c0.1-0.1,0.1-0.1,0.1-0.1c0,0,0,0,0,0
			c0,0,0.1,0,0.1,0c1-0.1,2-0.6,2.6-1.3c0.2,0,0.4-0.1,0.7-0.3c0.8-0.6,1.5-1.9,1.3-2.7c0.1-0.1,0.1-0.2,0.1-0.3
			C152.4,14.1,152.6,14.1,152.7,13.9z M155.7,13.7C155.7,13.7,155.7,13.7,155.7,13.7L155.7,13.7C155.7,13.7,155.7,13.7,155.7,13.7
			L155.7,13.7z M154.9,13.8C154.9,13.8,154.8,13.8,154.9,13.8C154.8,13.8,154.9,13.8,154.9,13.8z M143.6,9.5
			C143.6,9.5,143.6,9.4,143.6,9.5L143.6,9.5C143.6,9.5,143.6,9.5,143.6,9.5z M146.4,9.3C146.4,9.3,146.4,9.3,146.4,9.3
			C146.4,9.3,146.3,9.3,146.4,9.3z M146.5,10.2C146.5,10.2,146.4,10.2,146.5,10.2C146.4,10.2,146.4,10.2,146.5,10.2L146.5,10.2
			C146.5,10.2,146.5,10.2,146.5,10.2z M147.5,17.4C147.4,17.4,147.4,17.4,147.5,17.4C147.5,17.4,147.5,17.4,147.5,17.4z"/>
		<path class="st0" d="M144.8,13.9L144.8,13.9c0,0,0,0.1,0,0.1c0.1,0.3,0.2,0.6,0.4,0.7c0.1,0.1,0.2,0.1,0.3,0.2
			c0,0,0.1,0.1,0.1,0.1l0,0c0,0,0,0,0,0c0,0,0,0,0,0l0,0c0,0,0,0,0.1,0c0.1,0.1,0.3,0.2,0.3,0.3c0.1,0,0-0.1-0.1-0.1
			c0.1,0.1,0.3,0.1,0.4,0.2c-0.1,0-0.1,0-0.2-0.1c0,0,0,0,0,0c0.1,0,0.3,0.1,0.3,0.1c0,0,0,0,0.1,0l0.1,0l0,0c0,0,0,0,0,0
			c0.1,0,0.3,0.1,0.4,0c0,0,0,0,0,0c0,0,0,0,0,0c0.1,0,0.2,0,0.2,0l-0.2,0c0,0,0,0,0,0c0.1,0,0.1,0,0.1,0c0.1,0,0.2,0,0.4,0.1
			c0,0,0,0,0,0c-0.1,0-0.2,0-0.2,0l0.1,0l0,0c0,0,0,0,0,0l0,0c0,0,0,0,0,0l0,0l0.1,0c0,0,0,0,0,0c0.1,0,0.1,0.1,0.3,0c0,0,0,0,0,0
			c0.1,0,0.1,0,0.2,0c0,0,0.1,0,0.1-0.1c0,0,0,0,0,0c0,0,0-0.1,0-0.1c0,0,0,0,0,0c0,0-0.1,0-0.2,0l0,0l0,0c0,0,0,0,0,0
			c-0.1,0-0.1,0-0.2,0c0,0-0.1,0-0.1,0c-0.1,0,0-0.1,0.1-0.1c-0.2-0.1-0.6,0-1-0.1c-0.1,0-0.1,0-0.2,0l-0.1-0.1
			c-0.1,0-0.1,0-0.2-0.1c-0.2-0.2-0.5-0.3-0.6-0.5c-0.1-0.1-0.2-0.2-0.2-0.4c0-0.1-0.1-0.3,0-0.5l0-0.1c0-0.1,0.1-0.2,0.1-0.2
			c0.1-0.3,0.3-0.5,0.4-0.7c0.2-0.3,0.6-0.4,0.9-0.5l0,0c0,0,0.1,0,0.1,0c0,0,0.1,0,0.1,0c0,0,0.1,0,0.1,0c0,0,0,0,0,0
			c0.1,0,0.1,0,0.2,0c0,0,0,0,0.1,0l0,0c0.2,0.1,0.4,0.2,0.4,0.3c0.1,0,0.2,0.1,0.3,0.2c0.1,0.1,0.3,0.2,0.3,0.3
			c0,0.2,0.1,0.3,0.1,0.5c0,0,0,0,0,0c0,0,0,0,0,0c0,0.2,0.1,0.3,0.1,0.5c0.1,0,0.3,0.1,0.4-0.3c0-0.1,0-0.1,0-0.2
			c0-0.1,0.1-0.2,0.1-0.3c0-0.1-0.1-0.3-0.2-0.5l0-0.1c0,0-0.1-0.1-0.1-0.1c0-0.1-0.1-0.1-0.1-0.1c-0.3-0.5-0.8-0.7-1.2-0.8
			c-0.4-0.1-0.8-0.1-1.1,0.1c-0.1,0-0.2-0.1-0.3,0c-0.4,0.1-0.8,0.4-0.8,0.7c-0.1,0.1-0.2,0.2-0.2,0.2c0,0.1,0,0.2-0.1,0.3
			c-0.1,0.2-0.2,0.4-0.2,0.6c0,0,0,0,0,0c0,0,0,0.1,0,0.1C144.8,13.7,144.8,13.8,144.8,13.9z M147.4,15.4
			C147.4,15.4,147.4,15.4,147.4,15.4C147.4,15.4,147.4,15.4,147.4,15.4L147.4,15.4z"/>
	</g>
</g>
<g id="Layer_2">
</g>
</svg>
