<?xml version="1.0" encoding="utf-8"?>
<!-- Generator: Adobe Illustrator 23.0.1, SVG Export Plug-In . SVG Version: 6.00 Build 0)  -->
<svg version="1.1" id="Layer_1" xmlns="http://www.w3.org/2000/svg" xmlns:xlink="http://www.w3.org/1999/xlink" x="0px" y="0px"
	 viewBox="0 0 1554 1011.81" style="enable-background:new 0 0 1554 1011.81;" xml:space="preserve">
<style type="text/css">
	.st0{display:none;fill:url(#SVGID_1_);}
	.st1{opacity:0.57;fill:#305BAA;}
	.st2{fill:#FFB71B;}
	.st3{fill:url(#SVGID_2_);}
	.st4{fill:#FF4D00;}
	.st5{fill:#FFFFFF;}
	.st6{fill:#211261;}
	.st7{fill:url(#SVGID_3_);}
	.st8{fill:url(#SVGID_4_);}
	.st9{fill:url(#SVGID_5_);}
	.st10{opacity:0.56;fill:#FFFFFF;}
	.st11{fill:url(#SVGID_6_);}
	.st12{fill:#17AFD1;}
	.st13{fill:#305BAA;}
	.st14{opacity:0.5;fill:url(#SVGID_7_);}
	.st15{opacity:0.13;fill:#305BAA;}
	.st16{fill:#0A1F8F;}
	.st17{opacity:0.35;}
	.st18{opacity:0.59;fill:#FFFFFF;}
	.st19{opacity:0.4;}
	.st20{opacity:0.38;}
	.st21{fill:url(#SVGID_8_);}
	.st22{opacity:0.42;}
	.st23{fill:url(#SVGID_9_);}
	.st24{fill:url(#SVGID_10_);}
	.st25{opacity:0.42;fill:#305BAA;}
	.st26{fill:url(#SVGID_11_);}
	.st27{fill:url(#SVGID_12_);}
	.st28{opacity:0.1;fill:url(#SVGID_13_);}
	.st29{opacity:0.18;fill:url(#SVGID_14_);}
	.st30{fill:url(#SVGID_15_);}
	.st31{fill:url(#SVGID_16_);}
	.st32{opacity:0.25;}
	.st33{fill:url(#SVGID_17_);}
	.st34{fill:url(#SVGID_18_);}
	.st35{fill:url(#SVGID_19_);}
	.st36{fill:url(#SVGID_20_);}
	.st37{fill:url(#SVGID_21_);}
	.st38{fill:url(#SVGID_22_);}
	.st39{opacity:0.25;fill:url(#SVGID_23_);}
	.st40{opacity:0.25;fill:url(#SVGID_24_);}
	.st41{opacity:0.25;fill:url(#SVGID_25_);}
	.st42{opacity:0.25;fill:url(#SVGID_26_);}
	.st43{opacity:0.25;fill:url(#SVGID_27_);}
	.st44{opacity:0.25;fill:url(#SVGID_28_);}
	.st45{opacity:0.25;fill:url(#SVGID_29_);}
	.st46{opacity:0.25;fill:url(#SVGID_30_);}
</style>
<g>
	<linearGradient id="SVGID_1_" gradientUnits="userSpaceOnUse" x1="776.813" y1="1101.4503" x2="776.813" y2="157.9213">
		<stop  offset="0" style="stop-color:#17AFD1"/>
		<stop  offset="0.1285" style="stop-color:#18ACCF"/>
		<stop  offset="0.2973" style="stop-color:#1CA3CB"/>
		<stop  offset="0.4885" style="stop-color:#2293C4"/>
		<stop  offset="0.6962" style="stop-color:#2A7EB9"/>
		<stop  offset="0.9149" style="stop-color:#2F66AD"/>
		<stop  offset="1" style="stop-color:#305BAA"/>
	</linearGradient>
	<path class="st0" d="M1496.81,157.92h-1440v666.1c0,0,712.2-89.17,1437.49,277.43L1496.81,157.92z"/>
	<path class="st1" d="M630.35,141.77c154.24,7.34,182.39,22.03,160.36,73.45s-4.9,61.21,51.41,55.09s146.89-35.5,232.58,37.95
		s473.73,194.63,543.51,48.96c69.77-145.67-52.64-299.91-52.64-299.91L630.35,141.77z"/>
	<path class="st2" d="M1053.83,976.84c-89.66-80.82-166.7-141.44-260.15-165.44s-132.6-140.18-75.77-215.95
		S859.39,531.82,929,459.92c91-94,123.57-211.76,369.83-120.83s335.92,250.05,335.92,250.05l-2.53,197.01l-214.69,170.49
		L1053.83,976.84z"/>
	<path class="st1" d="M1105.36,506.47c-41.66,12.5-88.4,14.97-144-1.43s-164.67-52.04-217.42-34.93
		c-52.75,17.11-74.85,63.44-40.63,109.07c34.22,45.62,212.41,12.21,290.85,60.59c126.28,77.89,62.51,215.89,160.63,260.21
		c81.91,36.99,401.84-49,488.81-38.31s-64.88-197.66-74.15-258.25c-9.27-60.59-110.49-230.26-258.77-196.75
		S1169.51,487.22,1105.36,506.47z"/>
	<linearGradient id="SVGID_2_" gradientUnits="userSpaceOnUse" x1="749.2638" y1="502.3181" x2="1016.338" y2="502.3181">
		<stop  offset="0.0785" style="stop-color:#FFB71B"/>
		<stop  offset="0.1806" style="stop-color:#FFC850"/>
		<stop  offset="0.2838" style="stop-color:#FFD67E"/>
		<stop  offset="0.391" style="stop-color:#FFE3A6"/>
		<stop  offset="0.5006" style="stop-color:#FFEDC6"/>
		<stop  offset="0.6134" style="stop-color:#FFF5DF"/>
		<stop  offset="0.7307" style="stop-color:#FFFBF1"/>
		<stop  offset="0.8554" style="stop-color:#FFFEFC"/>
		<stop  offset="1" style="stop-color:#FFFFFF"/>
	</linearGradient>
	<path class="st3" d="M1016.34,525.16H749.26c0,0,11.05-34.07,62.62-13.81c0,0,21.18-26.71,59.86-31.31
		c38.68-4.6,48.81,21.18,48.81,21.18s25.79-19.34,43.28,0.92C963.84,502.13,996.08,488.32,1016.34,525.16z"/>
	<path class="st4" d="M954.25,915.68c104.91-43.2,83.31-158.9,157.36-188.21c74.05-29.31,111.08-183.59,251.47-132.68
		s242.21,109.53,242.21,109.53L954.25,915.68z"/>
	<path class="st5" d="M957.92,391.67h-84.87c0,0,3.04-6.08,10.34-2.74c0,0,9.13-8.82,17.64-3.65c0,0,5.48-8.82,18.56,0
		c0,0,4.87-9.13,13.99-1.83c0,0,7.6-0.91,9.13,4.56C942.71,388.02,954.87,384.98,957.92,391.67z"/>
	<path class="st5" d="M957.92,400.04h-84.87c0,0,3.04,6.08,10.34,2.74c0,0,9.13,8.82,17.64,3.65c0,0,5.48,8.82,18.56,0
		c0,0,4.87,9.13,13.99,1.83c0,0,7.6,0.91,9.13-4.56C942.71,403.7,954.87,406.74,957.92,400.04z"/>
	<g>
		<g>
			<path class="st6" d="M1142.29,463.19c-24.01-5.43-24.71-29.54-21.41-55.36s13.61-181.19,21.36-224.82
				c7.75-43.64,26.74-84.13,35.42-86.51s191.27,8.76,426.98,92.51s537.95,285.19,537.95,285.19l-220.91,193.42
				C1921.67,667.63,1689.92,586.95,1142.29,463.19z"/>
			<path class="st6" d="M1221.27,321.89c-30.99-7.06-15.25-57.99-13.93-116.72c1.09-48.55-9.55-83.48-10.6-108.41
				c-12.96-0.88-17.46-0.7-19.08-0.26c-8.69,2.38-27.67,42.87-35.42,86.51c-7.75,43.64-18.06,199.01-21.36,224.82
				c-3.3,25.81-2.6,49.93,21.41,55.35c547.63,123.76,779.39,204.44,779.39,204.44l163.89-143.5
				c-71.75-19.61-187.6-52.42-340.57-88.24C1613.33,405.07,1252.26,328.95,1221.27,321.89z"/>
			
				<linearGradient id="SVGID_3_" gradientUnits="userSpaceOnUse" x1="627.5758" y1="-195.8988" x2="1470.5734" y2="-195.8988" gradientTransform="matrix(0.9644 -0.2645 0.2645 0.9644 699.3507 771.8999)">
				<stop  offset="0" style="stop-color:#17AFD1"/>
				<stop  offset="0.0886" style="stop-color:#1E9EC9"/>
				<stop  offset="0.2215" style="stop-color:#2688BE"/>
				<stop  offset="0.3597" style="stop-color:#2B77B6"/>
				<stop  offset="0.5024" style="stop-color:#2E6BB0"/>
				<stop  offset="0.6515" style="stop-color:#2F62AC"/>
				<stop  offset="0.8112" style="stop-color:#305DAA"/>
				<stop  offset="1" style="stop-color:#305BAA"/>
			</linearGradient>
			<path class="st7" d="M1604.64,189.02c-191.71-68.11-351.45-88.41-407.9-92.25c7.58,18.04,20.38,63.1,21.88,103.69
				c2.17,58.7-10.28,113.86,20.71,120.92c30.99,7.07,374,83.69,505.66,114.52c152.97,35.82,268.82,68.63,340.57,88.24l57.02-49.93
				C2142.59,474.21,1840.35,272.76,1604.64,189.02z"/>
			
				<linearGradient id="SVGID_4_" gradientUnits="userSpaceOnUse" x1="531.5158" y1="-245.6048" x2="1033.2289" y2="-245.6048" gradientTransform="matrix(0.9644 -0.2645 0.2645 0.9644 699.3507 771.8999)">
				<stop  offset="0" style="stop-color:#17AFD1"/>
				<stop  offset="0.0886" style="stop-color:#1E9EC9"/>
				<stop  offset="0.2215" style="stop-color:#2688BE"/>
				<stop  offset="0.3597" style="stop-color:#2B77B6"/>
				<stop  offset="0.5024" style="stop-color:#2E6BB0"/>
				<stop  offset="0.6515" style="stop-color:#2F62AC"/>
				<stop  offset="0.8112" style="stop-color:#305DAA"/>
				<stop  offset="1" style="stop-color:#305BAA"/>
			</linearGradient>
			<path class="st8" d="M1179.2,132.4c0,0-17.12,58.66-22.91,124.59c-5.79,65.93-15.63,139.21-2.23,158.35
				c8.53,12.19,12.97-17.05,12.97-17.05s158.82,22.86,208,39.46c49.18,16.61,94.31,26.02,127.23,32.56
				c32.93,6.54,90.62,23.92,126.52,22.38c35.9-1.54,57.94,6.94,57.94,6.94l4.72-16.86c0,0-444.56-107.41-476.26-113.24
				c-31.7-5.84-37.18-33.39-34.39-49.72C1183.57,303.47,1189.46,188.74,1179.2,132.4z"/>
			<path class="st6" d="M1144.92,405.86c0,0,22.58-0.51,24.47-23.75c1.89-23.24,6.08-83.25,6.16-90.5
				c0.08-7.25,2.07-20.7-20.83-28.88l-2.21,8.87c0,0,15.42,3.52,14.7,19.72c-0.72,16.2-6.21,82.77-8.03,93.08
				c-1.82,10.31-10.11,12.07-16.36,13.78L1144.92,405.86z"/>
			<path class="st6" d="M1150.11,277.94c0,0,11.87-3.77,16.09-14.74c4.22-10.97,5-13.76,1.07-16.82
				c-3.93-3.05-12.06-4.44-12.06-4.44L1150.11,277.94z"/>
			<path class="st6" d="M1214.86,299.42c0,0,12.66-0.89,14.11-27.62c1.45-26.73,0.64-72.98-0.69-83.46
				c-1.33-10.48-8.63-18.29-14.14-21.42c-5.51-3.14-10.8,24.65-10.8,24.65l-1.1,52.45L1214.86,299.42z"/>
			<path class="st6" d="M1215.93,308.94c0,0,2.78-10.57,14.79-8.19c12.01,2.38,154.12,31.05,192.04,41.3l4.19-1.67
				c0,0,29.37,16.73,64.23,25.24c34.86,8.51,174.92,42.9,192.27,45.88c17.34,2.99,60.65-4.76,84.11-3.96s50.33,14.08,50.33,14.08
				l1.84,6.72c0,0,65.32,19.78,99.22,28.55c33.9,8.77,45.27,20.11,57.33,24.55l6.59-2.32c0,0,10.88,5.79,25.13,10.66
				s117.84,39.96,141.99,39.54s-0.99,32.03-0.99,32.03l-184.08-33.89l-740.27-180.66L1215.93,308.94z"/>
			<path class="st5" d="M1766,440.75c-150.76-35.17-475.56-107.07-516.01-116.85c-40.44-9.78-29.71-28.62-29.99-102.08
				c-0.26-68.72-20.64-118.87-23.27-125.06c-11.03-0.68-17.6-0.67-19.08-0.26c-4.89,1.34-13.05,14.77-20.63,34.04
				c6.72-14.19,16.39-28.14,22.17,1.86c7.96,41.29-5.28,127.9-7.01,154.21c-1.73,26.31,5.79,57.18,5.79,57.18l43.16,11.41l9.61-2.64
				c0,0,113.98,29.44,300.84,75.05c144.99,35.39,378.92,125.7,476.46,164.39l77.26-67.64C1996.58,499.76,1860.36,462.76,1766,440.75
				z"/>
		</g>
		<g>
			
				<linearGradient id="SVGID_5_" gradientUnits="userSpaceOnUse" x1="627.5758" y1="-282.5778" x2="1470.5734" y2="-282.5778" gradientTransform="matrix(0.9644 -0.2645 0.2645 0.9644 699.3507 771.8999)">
				<stop  offset="0" style="stop-color:#17AFD1"/>
				<stop  offset="0.0886" style="stop-color:#1E9EC9"/>
				<stop  offset="0.2215" style="stop-color:#2688BE"/>
				<stop  offset="0.3597" style="stop-color:#2B77B6"/>
				<stop  offset="0.5024" style="stop-color:#2E6BB0"/>
				<stop  offset="0.6515" style="stop-color:#2F62AC"/>
				<stop  offset="0.8112" style="stop-color:#305DAA"/>
				<stop  offset="1" style="stop-color:#305BAA"/>
			</linearGradient>
			<path class="st9" d="M1308.32,214.65c25.52,67.86,87.7,88.81,172,51.87c84.3-36.94,103.64-4.24,115.94,15.42
				c12.3,19.66,55.11,53.98,100.74,10.37c45.62-43.61,112.52,7.14,147.35,45.96c29.06,32.39,98.62,72.09,119.53,25.84
				c-105.3-61.07-240.68-132.97-359.24-175.09c-191.71-68.11-351.45-88.41-407.9-92.25c2.29,5.46,5.06,13.41,7.86,22.94
				C1250.41,136.91,1291.51,169.95,1308.32,214.65z"/>
			<path class="st10" d="M1308.32,214.65c25.52,67.86,87.7,88.81,172,51.87c84.3-36.94,103.64-4.24,115.94,15.42
				c12.3,19.66,55.11,53.98,100.74,10.37c45.62-43.61,112.52,7.14,147.35,45.96c29.06,32.39,98.62,72.09,119.53,25.84
				c-105.3-61.07-240.68-132.97-359.24-175.09c-191.71-68.11-351.45-88.41-407.9-92.25c2.29,5.46,5.06,13.41,7.86,22.94
				C1250.41,136.91,1291.51,169.95,1308.32,214.65z"/>
		</g>
	</g>
	<linearGradient id="SVGID_6_" gradientUnits="userSpaceOnUse" x1="1438.0189" y1="469.9163" x2="1438.0189" y2="862.9921">
		<stop  offset="0" style="stop-color:#17AFD1"/>
		<stop  offset="0.0886" style="stop-color:#1E9EC9"/>
		<stop  offset="0.2215" style="stop-color:#2688BE"/>
		<stop  offset="0.3597" style="stop-color:#2B77B6"/>
		<stop  offset="0.5024" style="stop-color:#2E6BB0"/>
		<stop  offset="0.6515" style="stop-color:#2F62AC"/>
		<stop  offset="0.8112" style="stop-color:#305DAA"/>
		<stop  offset="1" style="stop-color:#305BAA"/>
	</linearGradient>
	<polygon class="st11" points="1334.45,862.99 1380.41,579.38 1365.35,549 1441.61,507.98 1443.52,486.92 1476.08,469.92 
		1471.6,495.62 1541.59,495.62 1541.59,774.08 	"/>
	<path class="st5" d="M958.97,305.56c-1.54-3.65-4.11-6.76-7.33-8.98c3.22-2.22,5.79-5.33,7.33-8.98c1.54,3.65,4.11,6.76,7.33,8.98
		C963.08,298.8,960.52,301.91,958.97,305.56z"/>
	<path class="st5" d="M1059.04,405.63c-1.54-3.65-4.11-6.76-7.33-8.98c3.22-2.22,5.79-5.33,7.33-8.98c1.54,3.65,4.11,6.76,7.33,8.98
		C1063.15,398.87,1060.59,401.98,1059.04,405.63z"/>
	<path class="st6" d="M901.48,449.96c-1.26-2.97-3.35-5.51-5.97-7.32c2.63-1.81,4.72-4.34,5.97-7.32c1.26,2.97,3.35,5.51,5.97,7.32
		C904.83,444.46,902.74,446.99,901.48,449.96z"/>
	<path class="st6" d="M1110.97,535.63c-1.26-2.97-3.35-5.51-5.97-7.32c2.63-1.81,4.72-4.34,5.97-7.32c1.26,2.97,3.35,5.51,5.97,7.32
		C1114.31,530.12,1112.22,532.65,1110.97,535.63z"/>
	<path class="st2" d="M997.27,316.43c-0.97-2.29-2.57-4.23-4.59-5.63c2.02-1.39,3.63-3.34,4.59-5.63c0.97,2.29,2.57,4.23,4.59,5.63
		C999.84,312.2,998.24,314.15,997.27,316.43z"/>
	<path class="st6" d="M1111.97,688.04c-1.54-3.65-4.11-6.76-7.33-8.98c3.22-2.22,5.79-5.33,7.33-8.98c1.54,3.65,4.11,6.76,7.33,8.98
		C1116.08,681.28,1113.51,684.39,1111.97,688.04z"/>
	<path class="st5" d="M668.04,666.32c-0.95-2.25-2.53-4.17-4.52-5.54c1.99-1.37,3.57-3.29,4.52-5.54c0.95,2.25,2.53,4.17,4.52,5.54
		C670.58,662.16,669,664.07,668.04,666.32z"/>
	<path class="st5" d="M766.81,489.85c-0.95-2.25-2.53-4.17-4.52-5.54c1.99-1.37,3.57-3.29,4.52-5.54c0.95,2.25,2.53,4.17,4.52,5.54
		C769.34,485.69,767.76,487.6,766.81,489.85z"/>
	<path class="st5" d="M1061.69,503.73c-0.95-2.25-2.53-4.17-4.52-5.54c1.99-1.37,3.57-3.29,4.52-5.54c0.95,2.25,2.53,4.17,4.52,5.54
		C1064.23,499.56,1062.64,501.48,1061.69,503.73z"/>
	<path class="st12" d="M1061.69,251.64c-0.95-2.25-2.53-4.17-4.52-5.54c1.99-1.37,3.57-3.29,4.52-5.54
		c0.95,2.25,2.53,4.17,4.52,5.54C1064.23,247.47,1062.64,249.38,1061.69,251.64z"/>
	<path class="st13" d="M1519.45,663.66l-59.6-11.84c-5.56-1.1-9.24-6.43-8.31-12.02l23.89-143.3c0,0,7.66-10.21,29.35-0.64
		c21.69,9.57,39.56,45.94,39.56,45.94L1519.45,663.66z"/>
	<polygon class="st13" points="1457.7,666.74 1513.77,677.46 1510.88,691.06 1455.22,681.17 	"/>
	<linearGradient id="SVGID_7_" gradientUnits="userSpaceOnUse" x1="1412.0823" y1="587.8671" x2="1389.2933" y2="720.6375">
		<stop  offset="0" style="stop-color:#17AFD1"/>
		<stop  offset="1" style="stop-color:#305BAA"/>
	</linearGradient>
	<path class="st14" d="M1395.57,577.1l25.74-11c5.45-2.33,11.35,2.19,10.51,8.06l-21.79,153.17l-41.99-2.87l23.02-141.59
		C1391.47,580.3,1393.18,578.12,1395.57,577.1z"/>
	<path class="st15" d="M1365.02,684.74c54.52-5.26,108.81,24.83,131.53,49.82l-69.16,11.53L1365.02,684.74z"/>
	<path class="st6" d="M1456.32,775.47c0,0-71.2-140.7-144.27-133.76c-73.07,6.94-84.31,67.38-131.15,97.1
		c-46.84,29.72-61.83,113.94-23.42,166.46C1195.88,957.78,1456.32,775.47,1456.32,775.47z"/>
	<path class="st6" d="M1216.48,705.74c-28.63,13.94-62.76-2.46-69.78-33.52c-1.55-6.84-2.92-12.57-3.9-16.01
		c-4.41-15.45-12.36-17.21-15.89-18.98c0,0-16.33-76.36,38.84-111.67s142.56,0.44,151.39,63.56c8.83,63.12-22.51,78.56-22.51,78.56
		L1216.48,705.74z"/>
	<path class="st12" d="M1171.73,599.86c11.16-5.75,29.63-13.13,49.39-12.02c5.2,0.29,9.6,3.94,10.92,8.98l7.74,29.5
		c0,0-10.25,5.61-22.77,5.13c-12.53-0.48-17.47-7.21-28.4-2.58c-11.95,5.06-10.15,20.41-17.86,23.3c0,0-7.97-12.42-9.71-32.94
		C1160.36,611.19,1164.58,603.54,1171.73,599.86z"/>
	<path class="st13" d="M1123.5,582.91c-0.64,12.16,22.93,19.4,33.51,4.94s15.52-25.4,22.22-22.58c6.7,2.82,21.87,10.58,36.69,8.82
		s38.8,2.47,46.92,10.23c8.11,7.76,23.63,2.47,21.52-11.64c-2.12-14.11-12.35-63.5-62.44-66.32
		C1171.83,503.54,1126.32,529.29,1123.5,582.91z"/>
	<path class="st16" d="M1149.14,616.35c-2.26,1.73-4.8,3.9-6.86,6.21c-0.78,0.88-1.06,2.09-0.76,3.22
		c1.21,4.58,4.82,17.31,10.7,29.5c1,2.07,3.69,2.63,5.44,1.14l3.34-2.84c1.19-1.01,1.57-2.66,0.95-4.09
		c-2.12-4.83-6.61-16.58-7.17-30.5C1154.66,616.16,1151.39,614.62,1149.14,616.35z"/>
	<path class="st13" d="M1167.55,689.36l-8.38,9.39c0,0,6.09,11.17,20.05,14.47l8.12-9.64L1167.55,689.36z"/>
	<g class="st17">
		<path class="st13" d="M1175.05,609.93c6.46,2.24,11.56,2.11,20.01-6.96c7.65-8.22,28.6-14.21,35.56-9.46
			c-2.02-3.26-5.52-5.45-9.49-5.67c-19.76-1.1-38.23,6.27-49.39,12.02c-5.06,2.61-8.64,7.2-10.07,12.5
			C1165.59,607.55,1169.18,607.9,1175.05,609.93z"/>
	</g>
	<path class="st16" d="M1251.51,598.39c-2.98,10.26,3.71,32.18,8.51,39.53c6.23,9.56,19.78,9.6,26.19,6.4
		c6.41-3.2,13.91-8.89,17.02-21.98c2.08-8.73,3.18-34.96-0.58-40.95c-3.76-5.99-11.94-1.97-14.03,5.41
		c-2.09,7.39-9.37,15.84-20.8,11.03C1263.69,596.1,1253.73,590.73,1251.51,598.39z"/>
	<path class="st13" d="M1174.41,630.48c-6.81,11.07-3.11,23.99-10.91,34.26c-7.81,10.27-11.27,7.35-10.04,13.71
		c1.23,6.37,33.64,42.63,54.45,36.03c34.97-11.09,16.14-45.04,47.77-57.62c-5.82-4.98-8.79-8.57-13.19-20.04
		c-18.13,2.85-25.84-2.88-36.44-7.26C1196.88,625.77,1180.9,619.92,1174.41,630.48z"/>
	<path class="st18" d="M1187.86,635.15c1.09,7.6,3.94,32.59,9.34,37.36s19.3-7.89,21.59-15.78c2.28-7.89-12.45-19.3-18.47-22
		C1194.29,632.04,1187.03,629.34,1187.86,635.15z"/>
	<g class="st19">
		<path class="st5" d="M1171.99,532.61c33.5-19.34,72.79-17.25,98.98,2.43c-9.1-14.37-24.15-27.28-49.05-28.68
			c-50.09-2.82-95.6,22.93-98.42,76.55c-0.15,2.88,1.07,5.48,3.13,7.58C1132.56,567.65,1148.4,546.23,1171.99,532.61z"/>
	</g>
	<g class="st20">
		<path class="st5" d="M1218.04,539.4c-24.87-3.24-47.55,4.17-63.43,17.06c-0.01,0.06-1.08-4.8,4.98-6.03
			c-0.15,0.09,2.33-9.11,10.65-8.76c-0.13,0.22,1.16-7.88,14.35-4.93c-0.11,0.11,1.83-7.42,11.36-3.37
			c-0.06-0.06,6.61-1.27,8.59,2.68C1204.38,535.89,1215.16,533.98,1218.04,539.4z"/>
	</g>
	<path class="st18" d="M1177.82,638.99c0,0,3.99,18.23,6.99,31.96c2.6,11.9-4.49,8.24-7.49,8.24c-3,0-8.24-3-6.49-12.23
		C1172.57,657.71,1175.82,633.49,1177.82,638.99z"/>
	<path class="st5" d="M1356.61,679.78l-7.3-2.84l-0.99-5.08l-6.74-1.98l-1.11-5.71l-13.39,2.6l-13.39,2.6l1.11,5.71l-5.5,4.36
		l0.99,5.08l-5.7,5.37c-0.81,8.06,6.99,17.27,16.7,20.14c12.43,3.68,15.37,5.92,15.37,5.92s1.89-3.18,12.03-11.25
		C1356.6,698.41,1360.38,686.95,1356.61,679.78z"/>
	<ellipse class="st6" cx="1273.37" cy="575.78" rx="13.83" ry="18.22"/>
	<ellipse class="st5" cx="1277.97" cy="577.51" rx="5.9" ry="7.78"/>
	
		<ellipse transform="matrix(0.712 -0.7021 0.7021 0.712 -151.8682 1025.2595)" class="st13" cx="1174.04" cy="697.78" rx="13.83" ry="18.22"/>
	
		<ellipse transform="matrix(0.712 -0.7021 0.7021 0.712 -154.8884 1024.5071)" class="st6" cx="1171.61" cy="701.09" rx="5.9" ry="7.78"/>
	
		<ellipse transform="matrix(0.0701 -0.9975 0.9975 0.0701 465.4944 1858.5181)" class="st13" cx="1229.63" cy="679.58" rx="18.22" ry="13.83"/>
	<linearGradient id="SVGID_8_" gradientUnits="userSpaceOnUse" x1="1130.1846" y1="762.6005" x2="1251.0375" y2="762.6005">
		<stop  offset="0.0785" style="stop-color:#305BAA"/>
		<stop  offset="1" style="stop-color:#17AFD1"/>
	</linearGradient>
	<path class="st21" d="M1224.04,671.42c-1.16,1.21-1.18,3.13,0.01,4.32c4.52,4.53,13.24,17.1,1.77,39.63
		c-13.16,25.85-20.56,31.17-36.33,55.05c-21.11,31.96-69.68,52.72-57.32,93.11l21.42-6.09c0,0-1.08-27.89,29.43-49.04
		c14.75-10.23,22.63-20.64,31.8-35.57c16.28-26.53,28.4-36.86,34.43-64.93c3.87-18.03,2.16-31.81-12.38-45.4
		c-1.23-1.15-3.18-1.09-4.35,0.13L1224.04,671.42z"/>
	<path class="st18" d="M1162.45,685.61l-0.24,1.32c-0.16,0.85,0.73,1.53,1.49,1.12c2.45-1.31,7.19-2.42,14.15,1.96
		c0.43,0.27,0.99,0.21,1.34-0.17l2.65-2.89c0.4-0.44,0.36-1.13-0.11-1.51c-2.66-2.15-11.26-7.95-18.97-0.41
		C1162.6,685.19,1162.49,685.4,1162.45,685.61z"/>
	<path class="st18" d="M1186.77,685.37c0.8-2.68,3.89-8.07,5.76-6.77s1.73,5.62,1.44,7.21s-2.88,1.87-3.31,0.29
		c-0.43-1.59-0.86-1.87-2.02-0.29S1186.33,686.81,1186.77,685.37z"/>
	<g>
		<path class="st5" d="M1192.25,508.18c-37.16,6.99-66.5,32.02-68.75,74.73C1123.5,582.91,1128.92,531.13,1192.25,508.18z"/>
	</g>
	<path class="st6" d="M1305.82,643.64c16.17-3.7,46.19-6,61.43-18.94c15.24-12.93,29.56,24.48,31.87,41.11
		c2.31,16.63,6,19.86,11.55,24.94l-8.78,2.31c0,0-15.24-9.24-18.94-26.79c-3.7-17.55-9.24-38.34-16.63-33.26
		c-7.39,5.08-21.25,11.09-37.88,12.01C1311.83,645.95,1305.82,643.64,1305.82,643.64z"/>
	<path class="st6" d="M1393.47,688.49c0,0,4.1-6.66,19.47-4.1c15.37,2.56,8.71,21.01,6.15,35.36c-2.56,14.35-13.83-4.61-13.83-4.61
		L1393.47,688.49z"/>
	<g class="st22">
		<path class="st13" d="M1244.84,726.86c-18.85,44.97,1.09,109.05,1.09,109.05l209.29-62.54c-9.05-17.17-73.67-135-140.57-131.83
			C1271.93,648.23,1261.4,687.36,1244.84,726.86z"/>
	</g>
	<path class="st5" d="M1299.57,755.12c0,0,34.66,29.29,34.24,46.62c-0.41,17.33,25.17,8.25,21.04,0.83
		c-4.13-7.43-27.23-35.07-11.55-32.59s40.43,20.63,49.92,19.8c9.49-0.83-4.13-17.74-10.73-23.93c-6.6-6.19,9.08-5.78,21.87-3.71
		s26.82,4.95,16.5-0.41c-10.31-5.36-25.58-14.03-17.74-14.03c7.84,0,16.09,2.48,7.01-4.13c-9.08-6.6-16.09-14.85-19.8-20.63
		c-3.71-5.78-21.45,5.78-31.36,13.2c-9.9,7.43-12.79,10.73-21.45,10.31s-6.6-7.43,5.78-15.68c12.38-8.25,34.66-17.74,48.68-16.09
		c14.03,1.65,4.95-16.09-1.65-26.82c-6.6-10.73-29.71-30.12-56.52-32.18s-53.63,23.93-68.07,47.86
		c-14.44,23.93-11.55,27.64-10.73,30.94c0.83,3.3,11.96-16.5,16.92-25.99c4.95-9.49-0.41,12.38-4.13,19.8
		c-3.71,7.43,0.41,10.73,4.13,4.54c3.71-6.19,12.38-26.82,13.61-17.74c1.24,9.08-1.24,25.99-0.83,32.18
		C1285.13,753.47,1290.91,748.11,1299.57,755.12z"/>
	<g>
		<g>
			
				<linearGradient id="SVGID_9_" gradientUnits="userSpaceOnUse" x1="693.1142" y1="382.4799" x2="731.1492" y2="382.4799" gradientTransform="matrix(0.9853 -0.1711 0.1711 0.9853 360.7546 487.8265)">
				<stop  offset="0" style="stop-color:#17AFD1"/>
				<stop  offset="0.0886" style="stop-color:#1E9EC9"/>
				<stop  offset="0.2215" style="stop-color:#2688BE"/>
				<stop  offset="0.3597" style="stop-color:#2B77B6"/>
				<stop  offset="0.5024" style="stop-color:#2E6BB0"/>
				<stop  offset="0.6515" style="stop-color:#2F62AC"/>
				<stop  offset="0.8112" style="stop-color:#305DAA"/>
				<stop  offset="1" style="stop-color:#305BAA"/>
			</linearGradient>
			<path class="st23" d="M1120.03,777.34c0,0,0.96-8.96-4.68-19.71c-5.64-10.75-12.08-30.98-8.28-40.44
				c3.8-9.45,15.4-10.21,18.35-5.28c2.95,4.93,7.79,27.96,11.36,34.04c3.57,6.08,12.01,11.31,14.73,22.15
				C1154.22,778.94,1120.03,777.34,1120.03,777.34z"/>
		</g>
		
			<linearGradient id="SVGID_10_" gradientUnits="userSpaceOnUse" x1="667.8046" y1="464.9099" x2="816.3132" y2="464.9099" gradientTransform="matrix(0.9853 -0.1711 0.1711 0.9853 360.7546 487.8265)">
			<stop  offset="0" style="stop-color:#17AFD1"/>
			<stop  offset="0.0886" style="stop-color:#1E9EC9"/>
			<stop  offset="0.2215" style="stop-color:#2688BE"/>
			<stop  offset="0.3597" style="stop-color:#2B77B6"/>
			<stop  offset="0.5024" style="stop-color:#2E6BB0"/>
			<stop  offset="0.6515" style="stop-color:#2F62AC"/>
			<stop  offset="0.8112" style="stop-color:#305DAA"/>
			<stop  offset="1" style="stop-color:#305BAA"/>
		</linearGradient>
		<path class="st24" d="M1120.2,773.54c0,0-17.16,9.68-24.39,13.87c-7.23,4.19-2.5,21.79,5.38,23.77c0,0-4.77,6.27-1.95,12.9
			s7.81,11.21,12.63,12.46c0,0-0.21,8.41,3.35,14.49c3.57,6.08,10.74,4,10.74,4s-2.11,9.58,2.13,14.7
			c4.24,5.13,9.42,8.41,28.21-1.55c0,0,12.21,0.39,22.6,2.36c10.39,1.96,15.04-2.61,15.04-2.61s12.99,4.86,22,3.72
			c9.01-1.15,21.17-8.28,26.3-22.16c5.13-13.87,7.8-49.67-8.57-63.84c-4.43-3.84-6.86-0.9-14.72-0.37
			c-7.86,0.53-11.72-7.18-25.87-4.3c0,0-6.19-1.86-14.37,1.66c0,0-7.38-18.4-17.9-18.67S1146.42,758.1,1120.2,773.54z"/>
		<path class="st25" d="M1188.72,784.67c-4.36,1.33-2.32,8.36,0.9,12.41s4.81-1.25,8.66-3.18c3.85-1.93-0.99-5.69-3.71-6.89
			C1191.85,785.8,1191.9,783.7,1188.72,784.67z"/>
		<g class="st22">
			<path class="st13" d="M1193.97,867.93c0,0,12.99,4.86,22,3.72s21.17-8.28,26.3-22.16c2.09-5.66,3.77-14.96,3.92-24.96
				c-4.78,1.71-12.96,3.79-16.31-0.53c-4.86-6.27-10.99-29.5-12.91-33.35c-1.93-3.85-4.63-2.55-3.43,4.36
				c1.2,6.91,8.28,21.17,8.94,27.34c0.65,6.17-4.44,5.8-5.16-0.78c-0.72-6.57-5.47-26.69-8.21-30.4c-2.74-3.71-2.95,4.7-2.58,9.24
				s-5.99,6.48-13.33,5.25c-7.33-1.24-16.04-15.22-22.74-22.43c-6.7-7.21-8.04-14.94-16.71-14.27c0,0-10.87-2.3-15.92,2.35
				c-5.06,4.65-4.92,15.09,2.01,16.4c6.93,1.31,10.07,4.95,8.6,8.56c-1.47,3.6-1.52,15.34,9.95,16.28
				c11.47,0.94,3.51,8.18,1.84,10.57c-1.68,2.39-3.25,10.2,6.66,11.82c9.91,1.63,8.64,13.57,1.46,15.66
				c-7.18,2.08-12.11,14.67,0.6,17.9c1,0.25,2.03,0.58,3.08,0.96c2.29,0.29,4.64,0.64,6.91,1.07
				C1189.32,872.5,1193.97,867.93,1193.97,867.93z"/>
			<path class="st13" d="M1109.95,810.91c5.89-2.28,13.19-6.06,12.76-8.5c-0.42-2.44-4.84-3.77-13.36,0.23
				c-6.28,2.94-12.09,3.29-15.25,1.19c1.6,3.63,4.13,6.6,7.1,7.34c0,0-1.79,2.36-2.53,5.71
				C1100.69,813.73,1105.25,812.73,1109.95,810.91z"/>
			<path class="st13" d="M1125.49,823.29c-0.35-2.03-3.46-0.65-10.62,3.94c-5.02,3.22-8.42,3.89-11.72,3.29
				c2.59,3.11,5.69,5.23,8.73,6.02c0,0-0.03,1.31,0.15,3.25c2.45-2.91,6.44-5.16,10.41-7.6
				C1128.11,828.7,1125.85,825.32,1125.49,823.29z"/>
			<path class="st13" d="M1133.67,848.67c-2.38,1.4-8.8,4.78-14.54,5.9c3.33,1.47,6.85,0.46,6.85,0.46s-0.29,1.31-0.44,3.23
				c3.79-1.49,7.44-2.66,9.86-4.44C1138.37,851.62,1136.71,846.88,1133.67,848.67z"/>
			<path class="st13" d="M1145.79,865.41c-6.49,2.38-15.02,2.53-19.52,0.8c0.41,1.28,1,2.49,1.85,3.52
				c4.24,5.13,9.42,8.41,28.21-1.55c0,0,0.61,0.02,1.66,0.07C1156.9,863.67,1153.96,862.41,1145.79,865.41z"/>
		</g>
	</g>
	<g>
		<path class="st5" d="M1559.69,695.21c0,0-309.89,120.36-366.6,138.72c-67.38,21.8-127.44,18.28-166.46-53.5
			c-49.13-90.39-81.71-155.41-100.54-194.38c-11.35-23.5-40.46-32.22-62.79-18.7c-176.8,107.03-361.81,266.58-361.81,266.58
			l1044.33,380.48l67.38-251.67L1559.69,695.21z"/>
		<linearGradient id="SVGID_11_" gradientUnits="userSpaceOnUse" x1="537.7461" y1="794.8547" x2="1000.1102" y2="794.8547">
			<stop  offset="0" style="stop-color:#17AFD1"/>
			<stop  offset="0.1285" style="stop-color:#18ACCF"/>
			<stop  offset="0.2973" style="stop-color:#1CA3CB"/>
			<stop  offset="0.4885" style="stop-color:#2293C4"/>
			<stop  offset="0.6962" style="stop-color:#2A7EB9"/>
			<stop  offset="0.9149" style="stop-color:#2F66AD"/>
			<stop  offset="1" style="stop-color:#305BAA"/>
		</linearGradient>
		<path class="st26" d="M537.75,844c0,0,172.02-149.75,337.9-246.52l121.64,242.47c6.64,13.24,1.15,29.36-12.19,35.79L743.56,992.22
			L537.75,844z"/>
		<g>
			<linearGradient id="SVGID_12_" gradientUnits="userSpaceOnUse" x1="537.7461" y1="769.7003" x2="1000.1102" y2="769.7003">
				<stop  offset="0" style="stop-color:#17AFD1"/>
				<stop  offset="0.1285" style="stop-color:#18ACCF"/>
				<stop  offset="0.2973" style="stop-color:#1CA3CB"/>
				<stop  offset="0.4885" style="stop-color:#2293C4"/>
				<stop  offset="0.6962" style="stop-color:#2A7EB9"/>
				<stop  offset="0.9149" style="stop-color:#2F66AD"/>
				<stop  offset="1" style="stop-color:#305BAA"/>
			</linearGradient>
			<path class="st27" d="M997.29,839.95l-95.81-190.97l-42.09-19.91c0,0-64.85,96.66,53.99,281.25l71.71-34.58
				C998.44,869.31,1003.93,853.2,997.29,839.95z"/>
			<path class="st10" d="M997.29,839.95L875.65,597.49l0,0c0,0-69.37,122.27,37.74,312.84l71.71-34.58
				C998.44,869.31,1003.93,853.2,997.29,839.95z"/>
		</g>
		<path class="st10" d="M593.27,843.5c0,0,103.41-82.73,211.31-160.96c0,0-16.19,96.21,54.85,231.99l-205.91-6.29L593.27,843.5z"/>
		<linearGradient id="SVGID_13_" gradientUnits="userSpaceOnUse" x1="1007.8052" y1="962.735" x2="1668.6846" y2="962.735">
			<stop  offset="0" style="stop-color:#17AFD1"/>
			<stop  offset="1" style="stop-color:#305BAA"/>
		</linearGradient>
		<path class="st28" d="M1007.81,974.62c0,0,420.44-169.76,601.43-227.89l59.45,363.3l-232.51,68.7L1007.81,974.62z"/>
		<linearGradient id="SVGID_14_" gradientUnits="userSpaceOnUse" x1="1407.0006" y1="776.2314" x2="1407.0006" y2="1180.9226">
			<stop  offset="0" style="stop-color:#17AFD1"/>
			<stop  offset="1" style="stop-color:#305BAA"/>
		</linearGradient>
		<path class="st29" d="M1111.27,1066.23c114.69-36.38,159.26-121.55,253.9-119.44c137.05,3.06,158.33-142.64,191.55-166.37
			c33.22-23.73,95.4,59.9,135.74,85.21c40.34,25.31-51.24,215.63-51.24,215.63s-41.13,72.77-45.09,75.14
			c-3.95,2.37-121.81,24.52-121.81,24.52L1111.27,1066.23z"/>
		<path class="st1" d="M694.35,911.87c48.47-25.39,53.09-80.21,81.36-79.63c28.27,0.58,76.75,7.5,92.9-31.16
			c16.16-38.66,31.74-49.63,54.24-37.51c22.5,12.12,38.08-1.15,59.43,17.89s34.05,73.86,20.77,96.94
			c-13.27,23.08-108.48,53.66-108.48,53.66L694.35,911.87z"/>
	</g>
	<linearGradient id="SVGID_15_" gradientUnits="userSpaceOnUse" x1="810.368" y1="442.8372" x2="810.368" y2="349.2556">
		<stop  offset="0" style="stop-color:#FFFFFF"/>
		<stop  offset="0.5338" style="stop-color:#17AFD1"/>
		<stop  offset="0.6847" style="stop-color:#18AED0"/>
		<stop  offset="0.7577" style="stop-color:#19AACE"/>
		<stop  offset="0.814" style="stop-color:#1CA2CB"/>
		<stop  offset="0.8618" style="stop-color:#2098C6"/>
		<stop  offset="0.9041" style="stop-color:#268ABF"/>
		<stop  offset="0.9425" style="stop-color:#2B7AB7"/>
		<stop  offset="0.9773" style="stop-color:#2E69AF"/>
		<stop  offset="1" style="stop-color:#305BAA"/>
	</linearGradient>
	<path class="st30" d="M859.37,401.8v-11.51h6.84l8.17-11.9l-4.86-8.83h-8.83l-13.99,16.77h-0.02l3.03-7.11l-5.83-18.72l-7.69-11.25
		h-13.47l-24.24,35.68l-17.26,1.4l-4.49,4.86c-0.41,0-0.83,0-1.25,0c-16.09,0-29.13,4.63-29.13,4.63s13.04,4.64,29.13,4.64
		c0.28,0,0.56,0,0.84,0l4.9,5.3l17.26,1.4l24.24,35.68h13.47l7.69-11.25l5.83-18.72l-3.03-7.11h0.02l13.99,16.77h8.83l4.86-8.83
		l-8.17-11.9H859.37z"/>
	<linearGradient id="SVGID_16_" gradientUnits="userSpaceOnUse" x1="1018.3098" y1="601.5207" x2="1084.3098" y2="677.5207">
		<stop  offset="0" style="stop-color:#FFB71B"/>
		<stop  offset="0.3348" style="stop-color:#FF8F11"/>
		<stop  offset="0.7787" style="stop-color:#FF6005"/>
		<stop  offset="1" style="stop-color:#FF4D00"/>
	</linearGradient>
	<circle class="st31" cx="1042.47" cy="629.34" r="51.23"/>
	<path class="st4" d="M1090.99,488.5c-1.54-3.65-4.11-6.76-7.33-8.98c3.22-2.22,5.79-5.33,7.33-8.98c1.54,3.65,4.11,6.76,7.33,8.98
		C1095.1,481.74,1092.54,484.85,1090.99,488.5z"/>
	<path class="st4" d="M1050.83,755.45c-1.54-3.65-4.11-6.76-7.33-8.98c3.22-2.22,5.79-5.33,7.33-8.98c1.54,3.65,4.11,6.76,7.33,8.98
		C1054.94,748.69,1052.37,751.8,1050.83,755.45z"/>
	<g class="st32">
		
			<linearGradient id="SVGID_17_" gradientUnits="userSpaceOnUse" x1="424.175" y1="85.199" x2="461.5613" y2="85.199" gradientTransform="matrix(0.9374 -0.3483 0.3483 0.9374 778.8547 920.2811)">
			<stop  offset="0" style="stop-color:#17AFD1"/>
			<stop  offset="1" style="stop-color:#305BAA"/>
		</linearGradient>
		<polygon class="st33" points="1242.79,843.69 1207.75,856.71 1204.53,848.06 1239.58,835.04 		"/>
		
			<linearGradient id="SVGID_18_" gradientUnits="userSpaceOnUse" x1="430.3994" y1="110.8802" x2="455.337" y2="110.8802" gradientTransform="matrix(0.9374 -0.3483 0.3483 0.9374 778.8547 920.2811)">
			<stop  offset="0" style="stop-color:#17AFD1"/>
			<stop  offset="1" style="stop-color:#305BAA"/>
		</linearGradient>
		<polygon class="st34" points="1245.9,869.93 1222.53,878.62 1219.31,869.97 1242.69,861.28 		"/>
		
			<linearGradient id="SVGID_19_" gradientUnits="userSpaceOnUse" x1="413.0331" y1="98.0396" x2="472.7033" y2="98.0396" gradientTransform="matrix(0.9374 -0.3483 0.3483 0.9374 778.8547 920.2811)">
			<stop  offset="0" style="stop-color:#17AFD1"/>
			<stop  offset="1" style="stop-color:#305BAA"/>
		</linearGradient>
		<polygon class="st35" points="1257.71,851.84 1201.78,872.63 1198.56,863.98 1254.5,843.2 		"/>
	</g>
	<g class="st32">
		
			<linearGradient id="SVGID_20_" gradientUnits="userSpaceOnUse" x1="2068.3149" y1="1022.179" x2="2105.7014" y2="1022.179" gradientTransform="matrix(0.9823 0.1874 -0.1874 0.9823 -363.5374 -788.9778)">
			<stop  offset="0" style="stop-color:#17AFD1"/>
			<stop  offset="1" style="stop-color:#305BAA"/>
		</linearGradient>
		<polygon class="st36" points="1512.48,614.18 1475.75,607.17 1477.48,598.11 1514.21,605.11 		"/>
		
			<linearGradient id="SVGID_21_" gradientUnits="userSpaceOnUse" x1="2074.5393" y1="1047.8601" x2="2099.4771" y2="1047.8601" gradientTransform="matrix(0.9823 0.1874 -0.1874 0.9823 -363.5374 -788.9778)">
			<stop  offset="0" style="stop-color:#17AFD1"/>
			<stop  offset="1" style="stop-color:#305BAA"/>
		</linearGradient>
		<polygon class="st37" points="1501.55,638.24 1477.06,633.56 1478.79,624.5 1503.28,629.17 		"/>
		
			<linearGradient id="SVGID_22_" gradientUnits="userSpaceOnUse" x1="2057.1731" y1="1035.0195" x2="2116.8433" y2="1035.0195" gradientTransform="matrix(0.9823 0.1874 -0.1874 0.9823 -363.5374 -788.9778)">
			<stop  offset="0" style="stop-color:#17AFD1"/>
			<stop  offset="1" style="stop-color:#305BAA"/>
		</linearGradient>
		<polygon class="st38" points="1521.02,628.88 1462.4,617.7 1464.13,608.63 1522.75,619.82 		"/>
	</g>
	<g>
		<linearGradient id="SVGID_23_" gradientUnits="userSpaceOnUse" x1="890.4484" y1="594.6225" x2="898.8248" y2="596.2203">
			<stop  offset="0" style="stop-color:#17AFD1"/>
			<stop  offset="1" style="stop-color:#305BAA"/>
		</linearGradient>
		<circle class="st39" cx="894.64" cy="595.42" r="4.26"/>
		<linearGradient id="SVGID_24_" gradientUnits="userSpaceOnUse" x1="909.1184" y1="632.7584" x2="917.4948" y2="634.3561">
			<stop  offset="0" style="stop-color:#17AFD1"/>
			<stop  offset="1" style="stop-color:#305BAA"/>
		</linearGradient>
		<circle class="st40" cx="913.31" cy="633.56" r="4.26"/>
		<linearGradient id="SVGID_25_" gradientUnits="userSpaceOnUse" x1="927.7884" y1="670.8942" x2="936.1648" y2="672.4919">
			<stop  offset="0" style="stop-color:#17AFD1"/>
			<stop  offset="1" style="stop-color:#305BAA"/>
		</linearGradient>
		<circle class="st41" cx="931.98" cy="671.69" r="4.26"/>
		<linearGradient id="SVGID_26_" gradientUnits="userSpaceOnUse" x1="946.4584" y1="709.03" x2="954.8348" y2="710.6277">
			<stop  offset="0" style="stop-color:#17AFD1"/>
			<stop  offset="1" style="stop-color:#305BAA"/>
		</linearGradient>
		<circle class="st42" cx="950.65" cy="709.83" r="4.26"/>
		<linearGradient id="SVGID_27_" gradientUnits="userSpaceOnUse" x1="965.1283" y1="747.1658" x2="973.5048" y2="748.7635">
			<stop  offset="0" style="stop-color:#17AFD1"/>
			<stop  offset="1" style="stop-color:#305BAA"/>
		</linearGradient>
		<circle class="st43" cx="969.32" cy="747.96" r="4.26"/>
		<linearGradient id="SVGID_28_" gradientUnits="userSpaceOnUse" x1="983.7983" y1="785.3016" x2="992.1747" y2="786.8994">
			<stop  offset="0" style="stop-color:#17AFD1"/>
			<stop  offset="1" style="stop-color:#305BAA"/>
		</linearGradient>
		<circle class="st44" cx="987.99" cy="786.1" r="4.26"/>
		<linearGradient id="SVGID_29_" gradientUnits="userSpaceOnUse" x1="1002.4683" y1="823.4374" x2="1010.8447" y2="825.0352">
			<stop  offset="0" style="stop-color:#17AFD1"/>
			<stop  offset="1" style="stop-color:#305BAA"/>
		</linearGradient>
		<circle class="st45" cx="1006.66" cy="824.24" r="4.26"/>
		<linearGradient id="SVGID_30_" gradientUnits="userSpaceOnUse" x1="1021.1382" y1="861.5732" x2="1029.5146" y2="863.171">
			<stop  offset="0" style="stop-color:#17AFD1"/>
			<stop  offset="1" style="stop-color:#305BAA"/>
		</linearGradient>
		<circle class="st46" cx="1025.33" cy="862.37" r="4.26"/>
	</g>
</g>
</svg>
