<svg id="Layer_1" data-name="Layer 1" xmlns="http://www.w3.org/2000/svg" xmlns:xlink="http://www.w3.org/1999/xlink" viewBox="0 0 295.26 147.68"><defs><style>.cls-1{fill:none;}.cls-2{fill:#eaecee;}.cls-3{clip-path:url(#clip-path);}.cls-4{fill:#fed6b7;}.cls-5{fill:#324853;}.cls-6{fill:#f8ba8a;}.cls-7{fill:#f26857;}.cls-8{fill:#f8a58b;}.cls-9{fill:#3c2517;}.cls-10{fill:#923f3b;}.cls-11{fill:#fff;}.cls-12{fill:#1e1e1e;}.cls-13{fill:#e6e6e5;}.cls-14{fill:#bbb;}.cls-15{fill:#f3f3f3;}.cls-16{fill:#bfdae5;}.cls-17{clip-path:url(#clip-path-2);}.cls-18{fill:#504833;}.cls-19{fill:#3e3e3e;}.cls-20{fill:#696248;}.cls-21{fill:#807759;}.cls-22{fill:#5a533e;}.cls-23{fill:#5a7761;}.cls-24{fill:#dcdbdb;}.cls-25{fill:#c2c1c1;}.cls-26{fill:#566369;}.cls-27{fill:#333;}.cls-28{fill:#7f8080;}.cls-29{fill:#939393;}.cls-30{fill:#171717;}.cls-31{fill:#1c8cc8;}</style><clipPath id="clip-path"><circle class="cls-1" cx="73.84" cy="73.84" r="71.84"/></clipPath><clipPath id="clip-path-2"><circle class="cls-1" cx="220.87" cy="73.84" r="71.84"/></clipPath></defs><title>transition</title><circle class="cls-2" cx="73.84" cy="73.84" r="71.84"/><g class="cls-3"><polyline class="cls-4" points="101.15 99.47 101.96 120.3 93.2 111.75 93.42 104.39 101.15 99.47"/><path class="cls-5" d="M55.38,143.06l4.72,81.77,9.08.73,3.09-74.73h2.52l3.09,74.73,9.23-.81,4.94-81.69a79.83,79.83,0,0,0-36.67,0"/><path class="cls-4" d="M61.3,52.51c1,1.67.69,3.56-.62,4.21s-3.18-.17-4.15-1.84-.7-3.56.62-4.21,3.17.17,4.15,1.84"/><path class="cls-4" d="M90.58,139.61H56.83s-2-58.36-.52-58.6C64,79.79,67,75.79,68.18,72.44c1-2.75,10.07-2.65,11.11.17C80.53,76,83.63,79.86,91.24,81c1.5.23-.66,58.58-.66,58.58"/><path class="cls-6" d="M79.29,72.61a18.53,18.53,0,0,1-5.29.72,18.06,18.06,0,0,1-5.82-.89,12.43,12.43,0,0,0,.7-5.06h9.65a12.49,12.49,0,0,0,.76,5.23"/><path class="cls-7" d="M96,83.13c-1.21-1.82-14-6.33-14-6.33s-2.59,5.41-8.25,5.41-8.25-5.41-8.25-5.41-12.82,4.51-14,6.33c-.34.51-7.28,15.3-7.28,15.3l9.78,6,1.45,38.67q16.86,4.65,36.67,0l1.44-38.67,10.44-6.71s-7.6-14-7.94-14.55"/><path class="cls-4" d="M74,32.28c-16.39.31-16.93,15.66-12.85,28.54C63.64,68.68,68.3,70.9,74,70.94s10.36-2.26,12.85-10.12C90.93,47.94,90.38,32.59,74,32.28"/><path class="cls-4" d="M86.7,52.51c-1,1.67-.7,3.56.62,4.21s3.17-.17,4.15-1.84.69-3.56-.62-4.21-3.18.17-4.15,1.84"/><path class="cls-8" d="M72.15,58.54a2.64,2.64,0,0,1,3.7,0,.12.12,0,0,1-.12.21,5,5,0,0,0-3.46,0,.12.12,0,0,1-.12-.21"/><path class="cls-9" d="M83.85,46.77A6.81,6.81,0,0,0,78,46.49a.75.75,0,0,1-.95-.26.7.7,0,0,1,.44-.94,8.09,8.09,0,0,1,7,.33.7.7,0,0,1,.35,1,.76.76,0,0,1-1,.17"/><path class="cls-9" d="M64.14,46.77A6.83,6.83,0,0,1,70,46.49a.75.75,0,0,0,.95-.26.7.7,0,0,0-.44-.94,8.11,8.11,0,0,0-7,.33.7.7,0,0,0-.34,1,.74.74,0,0,0,1,.17"/><path class="cls-9" d="M88.42,36a7.19,7.19,0,0,1,.13-5.17l-2.49.53.09-1.58a6.44,6.44,0,0,1-3.74.07,20.39,20.39,0,0,0-8.34-1.51C58.83,28.3,56.67,39,59.22,51.5a11,11,0,0,1,1.25.57c.3-2.45,0-9.35,2.17-11.7a3.08,3.08,0,0,0,.8,1.24,2.9,2.9,0,0,1,1.78-2.41h0a4.24,4.24,0,0,0-.44,3.14,8.31,8.31,0,0,1,1.06-.61l.06,0c4.4-2.15,15.17-4.34,19-1.63a3.89,3.89,0,0,1,1.23,1.66c1.31,3,1.09,8.29,1.35,10.34a11.51,11.51,0,0,1,1.22-.57C90,45.62,90.15,40.13,88.42,36"/><path class="cls-10" d="M68.49,61.75c0,2.91,3.08,5.13,5.4,5.13s5.61-2,5.61-5.13a15.85,15.85,0,0,1-11,0"/><path class="cls-11" d="M74,63.79a9.17,9.17,0,0,0,5.5-2,1.21,1.21,0,0,0-.84,0,17.59,17.59,0,0,1-9.33,0,1.21,1.21,0,0,0-.84,0,9.21,9.21,0,0,0,5.51,2"/><path class="cls-11" d="M67.85,49a6.88,6.88,0,0,1,2.4.91,3.64,3.64,0,0,1-.43,3.39A7.35,7.35,0,0,1,63.39,52c-.5-.66,1.55-3.23,4.46-3"/><path class="cls-12" d="M65.64,51.37a1.63,1.63,0,1,0,1.6-1.94,1.79,1.79,0,0,0-1.6,1.94"/><path class="cls-6" d="M62.91,52c.4-1.82,3-4.8,7.34-2.08-2.92-1.57-5.91-.53-6.61,2.25a1.43,1.43,0,0,1-.73-.17"/><path class="cls-11" d="M66.78,50.75a.75.75,0,0,1-1.5,0,.75.75,0,0,1,1.5,0"/><path class="cls-11" d="M80.15,49a6.88,6.88,0,0,0-2.4.91,3.61,3.61,0,0,0,.43,3.39A7.33,7.33,0,0,0,84.6,52c.51-.66-1.54-3.23-4.45-3"/><path class="cls-12" d="M82.35,51.37a1.62,1.62,0,1,1-1.59-1.94,1.79,1.79,0,0,1,1.59,1.94"/><path class="cls-6" d="M85.09,52c-.41-1.82-3-4.8-7.34-2.08,2.92-1.57,5.91-.53,6.61,2.25a1.43,1.43,0,0,0,.73-.17"/><path class="cls-11" d="M78.64,50.75a.75.75,0,1,0,.75-.75.75.75,0,0,0-.75.75"/><polyline class="cls-13" points="68.18 121.3 87.41 126.61 109.58 118.21 87.41 116.19 68.18 121.3"/><polyline class="cls-13" points="68.18 120.51 87.41 125.81 109.58 117.42 87.41 115.4 68.18 120.51"/><polyline class="cls-14" points="77.65 122.16 91.45 117.11 104.01 118.18 87.34 124.49 77.65 122.16"/><polyline class="cls-14" points="78.57 119.01 82.48 117.97 86.44 118.41 81.93 119.93 78.57 119.01"/><line class="cls-15" x1="121.33" y1="99.27" x2="96.49" y2="103.01"/><polyline class="cls-15" points="96.49 103.01 87.41 126.61 111.71 120.89 121.33 99.27"/><line class="cls-15" x1="121" y1="98.94" x2="96.16" y2="102.68"/><polyline class="cls-15" points="96.16 102.68 87.08 126.28 111.38 120.56 121 98.94"/><polyline class="cls-13" points="68.18 120.51 68.18 121.3 72.82 121.3 68.18 120.51"/><polyline class="cls-15" points="87.08 126.28 87.41 126.61 88.88 125.86 87.08 126.28"/><path class="cls-4" d="M105.28,122.41s-.17,2.35-3.32,2.77S98.33,124,98.33,124L100,118.1l3.25-.58.39,4.33.43-4.62h1l.2,5.18"/><polyline class="cls-4" points="81.75 117.01 77.54 114.57 70.94 113.19 64.48 114.78 50.98 112.94 53.93 104.39 45.55 99.18 40.36 114.82 42.59 119.93 64.48 118.84 70.25 118.14 74.3 118.62 74.44 118.07 73.06 117.01 77.63 117.37 79.8 118.83 80.33 118.48 79.95 117.53 81.5 117.8 81.75 117.01"/></g><path class="cls-16" d="M73.84,147.68a73.84,73.84,0,1,1,73.84-73.84A73.92,73.92,0,0,1,73.84,147.68ZM73.84,4a69.84,69.84,0,1,0,69.84,69.84A69.92,69.92,0,0,0,73.84,4Z"/><circle class="cls-2" cx="221.42" cy="73.84" r="71.84"/><g class="cls-17"><path class="cls-18" d="M225.22,76.41a21.4,21.4,0,0,0,4.5-.93c1.21.44.87,3.76-.47,3.8s-4-2.87-4-2.87"/><path class="cls-18" d="M216.52,76.41a12.72,12.72,0,0,1-2.92-.91c-1,.55-2.45,3.74-1.11,3.78s4-2.87,4-2.87"/><path class="cls-4" d="M239.28,109.11c.3-13.52.39-26.15-.31-26.26-7.63-1.17-10.73-5.09-12-8.44-1.05-2.83-10.17-2.92-11.14-.17-1.2,3.37-4.24,7.37-11.9,8.59-.72.12-.66,12.76-.39,26.28h35.72"/><path class="cls-4" d="M209,54.26c1,1.67.69,3.56-.63,4.22s-3.18-.18-4.16-1.85-.69-3.57.63-4.22,3.18.17,4.16,1.85"/><path class="cls-6" d="M227,74.41a19.5,19.5,0,0,1-11.14-.17,12.47,12.47,0,0,0,.7-5.07h9.67a12.46,12.46,0,0,0,.77,5.24"/><path class="cls-4" d="M221.68,34c-16.43.31-17,15.7-12.88,28.62,2.5,7.88,7.17,10.11,12.88,10.15s10.39-2.27,12.89-10.15c4.09-12.92,3.55-28.31-12.89-28.62"/><path class="cls-19" d="M215.59,81.29a16.81,16.81,0,0,0,10.72,0l-5.44,9.38-5.28-9.38"/><path class="cls-4" d="M234.42,54.26c-1,1.67-.7,3.56.62,4.22s3.19-.18,4.16-1.85.7-3.57-.62-4.22-3.18.17-4.16,1.85"/><path class="cls-6" d="M219.83,61.28a2.64,2.64,0,0,1,3.71,0,.12.12,0,0,1-.12.2,5,5,0,0,0-3.47,0,.12.12,0,0,1-.12-.21"/><path class="cls-20" d="M259.58,105.77,246.71,86.4a18.37,18.37,0,0,0-9.52-7.27c-.68-.23-1.34-.43-1.91-.57-.93-.24-2.07-.49-3.09-.7-1-2.36-2.47-2.38-2.47-2.38a8.58,8.58,0,0,1-4.05,5.14c-3,1.79-4.8,6.79-4.8,6.79a13.68,13.68,0,0,0-4.8-6.44,5.24,5.24,0,0,1-2.47-5.47,4.43,4.43,0,0,0-3.29,2.36c-1.17.23-2.31.31-3.85.7-.58.14-1.23.34-1.91.57A18.33,18.33,0,0,0,195,86.4l-12.88,19.37-2.75,8.51,16.71,24.43,4.56-4.8-11.12-20.29,10-8.58,2.2,29.67c.07,2.06,2.43,5.29,1.11,5.61L206.39,204h11.53L220,154h2.53l2.07,50h11.66l3.51-63.71c-1.53-.35.16-3.6.23-5.61L242.18,105l10,8.58-11.13,20,4.57,5.1,16.71-24.43-2.76-8.51"/><path class="cls-21" d="M240.29,134.74l.77-10.57c-13.44,4.55-26.9,3.83-40.39,0l.78,10.55a9.79,9.79,0,0,0,.88,3c.36.88.76,1.88.59,2.2,0,0,0,.06-.13.08l-.24.06,4.9,88.64,9.71.78L220,160.8c-6.15-.49-10.93-4.1-10.93-8.48,0-4.72,5.54-3.28,12.37-3.28s12.37-1.44,12.37,3.28c0,4.47-5,8.14-11.31,8.51l2.84,68.67,9.86-.86,4.87-88.56-.25-.06a.43.43,0,0,1-.29-.19c-.28-.46,0-1.65.3-2.69a12.91,12.91,0,0,0,.46-2.4m-28.11,67.49c-3.06,0-5.54-2.95-5.54-6.59s2.48-6.6,5.54-6.6,5.55,3,5.55,6.6S215.25,202.23,212.18,202.23Zm18.3,0c-3.06,0-5.54-2.95-5.54-6.59s2.48-6.6,5.54-6.6,5.54,3,5.54,6.6S233.54,202.23,230.48,202.23Z"/><path class="cls-6" d="M215.29,64.22a12.26,12.26,0,0,0,12.79,0,20.85,20.85,0,0,1-12.79,0"/><path class="cls-4" d="M200,134.56l7.23-1.7,4.09-.87,2.34,2.66-.48.51-1.86-1.5-3.77.75,3.85.24,3.09,2.62-1.94,2.62-2.82-1.43-2.78,0,4.1,2.42-.39.66-5.83-1.73-5.54.48-2.64-2.34,3.35-3.35"/><path class="cls-4" d="M242.29,134.89l-7.82-2-4.09-.87L228,134.65l.48.51,1.87-1.5,3.77.75-3.85.24-3.1,2.62,2,2.62,2.81-1.43,2.78,0-4.1,2.42.39.66,5.84-1.73,5.54.48s.71-.64,2.61-2.3l-2.73-3.06"/><polyline class="cls-18" points="236.11 94.07 224.39 98.64 224.8 99.69 236.52 95.12 236.11 94.07"/><polyline class="cls-18" points="206.77 94.07 218.49 98.64 218.08 99.69 206.36 95.12 206.77 94.07"/><path class="cls-18" d="M216.88,84s-2.36-1.45-3-1.25-1.63,1.36-3.52,1c0,0,2.47-.61,3.45-2s2.83,1,3.12,2.28"/><path class="cls-18" d="M224.56,84s2.36-1.45,3.05-1.25,1.63,1.36,3.51,1c0,0-2.46-.61-3.44-2s-2.83,1-3.12,2.28"/><polyline class="cls-22" points="246.65 95.85 253.99 104.54 258.33 101.84 251.44 91.95 246.65 95.85"/><polyline class="cls-22" points="195.25 95.85 187.91 104.54 183.57 101.84 190.46 91.95 195.25 95.85"/><path class="cls-23" d="M237.19,79.13a45.9,45.9,0,0,0-5-1.27c0,2.91-.12,3.88-1.07,5.84,1.21,15.94,5.23,28.33,9.67,40.15l.93-12.58a102.5,102.5,0,0,1-4.53-32.14"/><path class="cls-23" d="M205.1,78.93a17.35,17.35,0,0,1,5.21-1.07c-.72,2.35-.86,3.75,0,5.84A142.89,142.89,0,0,1,201,124.38l-1-12.72c5.24-16,5.06-32.73,5.06-32.73"/><polyline class="cls-24" points="239.03 96.36 232.1 97.39 231.47 93.19 238.4 92.16 239.03 96.36"/><polyline class="cls-25" points="237.81 93.77 232.52 94.56 232.37 93.56 237.66 92.78 237.81 93.77"/><polyline class="cls-24" points="202.92 96.36 209.85 97.39 210.48 93.19 203.55 92.16 202.92 96.36"/><polyline class="cls-25" points="204.15 93.77 209.44 94.56 209.59 93.56 204.29 92.78 204.15 93.77"/><rect class="cls-24" x="230.45" y="100.14" width="3.84" height="7.82"/><path class="cls-24" d="M221.77,100.14h-3.84V108h3.84l5.22-3.91-5.22-3.91m.89,1.8,2.83,2.11-2.83,2.12Z"/><rect class="cls-23" x="232.37" y="101.12" width="2.88" height="5.87"/><rect class="cls-23" x="205.61" y="101.12" width="13.61" height="5.87"/><rect class="cls-24" x="223.58" y="102.85" width="7.55" height="2.4"/><rect class="cls-24" x="215.17" y="100.14" width="1.34" height="7.82"/><path class="cls-26" d="M238.57,49.09a14.33,14.33,0,0,0,.66-4.31c0-8.76-7.83-15.85-17.49-15.85a18.49,18.49,0,0,0-11,3.5A16.34,16.34,0,0,0,206.53,37a14.62,14.62,0,0,0-2.28,7.82,14.33,14.33,0,0,0,.66,4.31h33.66"/><path class="cls-26" d="M210.4,68.73a6.7,6.7,0,0,1-1.84-1.59,20.45,20.45,0,0,1-4.71-19.25s5.28-.68,6.86,2.85a6.36,6.36,0,0,1,.35,3.62c-1.19,8,2,15.51-.66,14.37"/><path class="cls-27" d="M210.4,68.73a19.71,19.71,0,0,1-1.58-18.16,10.53,10.53,0,0,1,1.89.17,6.36,6.36,0,0,1,.35,3.62c-1.19,8,2,15.51-.66,14.37"/><polyline class="cls-28" points="206.9 61.99 205.72 61.99 203.38 58.72 202.21 55.66 203.38 55.66 206.9 58.93 206.9 61.99"/><polyline class="cls-29" points="205.72 61.99 202.21 58.72 202.21 55.66 205.72 58.93 205.72 61.99"/><path class="cls-29" d="M210.78,32.43V44.78h-3.4L206.53,37a16.34,16.34,0,0,1,4.25-4.53"/><rect class="cls-27" x="201.54" y="46.14" width="3.33" height="6.02"/><path class="cls-26" d="M233.1,68.73a6.42,6.42,0,0,0,1.84-1.59,20.42,20.42,0,0,0,4.71-19.25s-5.28-.68-6.86,2.85a6.45,6.45,0,0,0-.34,3.62c1.18,8-2,15.51.65,14.37"/><path class="cls-27" d="M233.1,68.73a19.71,19.71,0,0,0,1.58-18.16,10.53,10.53,0,0,0-1.89.17,6.45,6.45,0,0,0-.34,3.62c1.18,8-2,15.51.65,14.37"/><polyline class="cls-28" points="236.61 61.99 237.78 61.99 240.13 58.72 241.3 55.66 240.13 55.66 236.61 58.93 236.61 61.99"/><polyline class="cls-29" points="237.78 61.99 241.3 58.72 241.3 55.66 237.78 58.93 237.78 61.99"/><path class="cls-29" d="M232.73,32.43V44.78h3.4L237,37a16.49,16.49,0,0,0-4.25-4.53"/><rect class="cls-27" x="238.33" y="46.14" width="3.32" height="6.02"/><path class="cls-30" d="M202.65,44.78s.73,14,11,14c6.16,0,6-4.07,8.13-4.07s2,4.07,8.13,4.07c10.23,0,11-14,11-14-4.43-6.81-33.75-6.81-38.18,0"/><path class="cls-27" d="M226.27,54.14A38.46,38.46,0,0,0,228,40q-1.29-.14-2.61-.21a40,40,0,0,1-1.08,14.36h2"/><path class="cls-27" d="M228.65,54.14h5.77a38.19,38.19,0,0,0,1.77-12.42,33.7,33.7,0,0,0-6.42-1.51,40.45,40.45,0,0,1-1.12,13.93"/><path class="cls-27" d="M205.74,42.37a24.07,24.07,0,0,0,3,11.77h9.82a24.41,24.41,0,0,1-1.86-14.26,33,33,0,0,0-11,2.49"/></g><path class="cls-16" d="M221.42,147.68a73.84,73.84,0,1,1,73.84-73.84A73.92,73.92,0,0,1,221.42,147.68ZM221.42,4a69.84,69.84,0,1,0,69.84,69.84A69.92,69.92,0,0,0,221.42,4Z"/><circle class="cls-11" cx="147.63" cy="73.84" r="22.36"/><path class="cls-31" d="M133.37,73.9a1.55,1.55,0,0,0,1.55,1.55l21.66-.07-6.16,6.16a1.55,1.55,0,1,0,2.19,2.19l8.82-8.82h0a1.16,1.16,0,0,0,.2-.24,0,0,0,0,0,0,0,1.48,1.48,0,0,0,.25-.83,1.58,1.58,0,0,0-.24-.83,0,0,0,0,1,0,0l-.2-.24h0L152.67,64a1.56,1.56,0,0,0-2.2,2.2l6.12,6.12-21.66.07A1.56,1.56,0,0,0,133.37,73.9Z"/></svg>